<svg width="720" height="527" fill="none" xmlns="http://www.w3.org/2000/svg"><g filter="url(#filter0_d_232_549)"><path d="M495.458 419.891L35.241 296.576l189.508-189.508 460.217 123.315-189.508 189.508z" fill="#3D2B93"/><path d="M142.99 208.266l429.559 115.1M154.854 196.404l429.558 115.101M166.713 184.544l429.559 115.1M178.576 172.682l429.559 115.1M190.434 160.821l429.558 115.101M202.297 148.96l429.559 115.1M214.16 137.098l429.559 115.1m-417.703-126.96l429.558 115.1" stroke="#573CDA" stroke-linecap="round" stroke-linejoin="round"/><path d="M237.07 263.671l-104.412-27.977c-2.497-.669-2.813-2.944-.702-5.055a9.786 9.786 0 018.379-2.621l104.411 27.977c2.498.669 2.814 2.943.703 5.055a9.793 9.793 0 01-8.379 2.621zm-16.975 16.974l-104.411-27.977c-2.498-.669-2.814-2.944-.703-5.055a9.774 9.774 0 013.879-2.303 9.772 9.772 0 014.5-.319l104.412 27.977c2.497.669 2.813 2.944.702 5.055a9.786 9.786 0 01-8.379 2.622zm-16.975 16.974L98.71 269.642c-2.498-.669-2.814-2.944-.703-5.055a9.788 9.788 0 018.379-2.621l104.411 27.977c2.497.669 2.813 2.944.702 5.055a9.786 9.786 0 01-8.379 2.621zm-29.563 13.603L94.318 289.99c-2.497-.669-2.813-2.944-.702-5.055a9.788 9.788 0 018.379-2.622l79.238 21.232c2.498.67 2.814 2.944.703 5.055a9.774 9.774 0 01-3.879 2.303 9.772 9.772 0 01-4.5.319zm217.515-6.288L286.66 276.957c-2.497-.67-2.813-2.944-.702-5.055a9.784 9.784 0 018.379-2.622l104.411 27.977c2.497.67 2.813 2.944.702 5.055a9.786 9.786 0 01-8.378 2.622zm-16.975 16.973L269.686 293.93c-2.498-.669-2.814-2.943-.703-5.054a9.777 9.777 0 018.379-2.622l104.411 27.977c2.498.669 2.814 2.944.703 5.055a9.786 9.786 0 01-8.379 2.621zm-16.975 16.975l-104.411-27.977c-2.497-.669-2.814-2.944-.702-5.055a9.782 9.782 0 018.378-2.621l104.412 27.977c2.497.669 2.813 2.943.702 5.054a9.788 9.788 0 01-8.379 2.622zm-29.563 13.603l-79.239-21.232c-2.497-.67-2.813-2.944-.702-5.055a9.774 9.774 0 013.879-2.303 9.771 9.771 0 014.5-.319l79.238 21.232c2.498.669 2.814 2.944.703 5.055a9.793 9.793 0 01-8.379 2.622zm217.511-6.288L440.658 318.22c-2.497-.669-2.813-2.944-.702-5.054v-.001a9.783 9.783 0 018.379-2.621l104.411 27.977c2.497.669 2.814 2.944.703 5.055a9.793 9.793 0 01-8.379 2.621zm-16.975 16.974l-104.411-27.977c-2.498-.669-2.814-2.944-.703-5.055a9.793 9.793 0 018.379-2.621l104.412 27.977c2.497.669 2.813 2.943.702 5.055a9.786 9.786 0 01-8.379 2.621zm-16.975 16.975l-104.411-27.977c-2.497-.669-2.813-2.944-.702-5.055a9.774 9.774 0 013.879-2.303 9.77 9.77 0 014.5-.319l104.411 27.977c2.497.669 2.813 2.944.702 5.055a9.786 9.786 0 01-8.379 2.622zm-29.563 13.602l-79.239-21.232c-2.497-.669-2.813-2.944-.702-5.055a9.786 9.786 0 018.379-2.621l79.238 21.232c2.498.669 2.814 2.944.703 5.055a9.786 9.786 0 01-8.379 2.621z" fill="#573CDA"/><path d="M209.73 173.48c16.368-16.368 47.764-24.781 70.124-18.789 11.208 3.003 18.016 9.055 19.96 16.407l19.919-5.313c-2.724-10.305-12.266-18.789-27.976-22.998-31.34-8.398-75.345 3.394-98.288 26.336a58.47 58.47 0 00-6.955 8.309l18.254 1.976a41.724 41.724 0 014.962-5.928z" fill="#88CFB2"/><path d="M290.701 195.176c-16.368 16.369-47.764 24.781-70.124 18.79l-11.903 11.903c31.34 8.398 75.345-3.393 98.287-26.336 11.443-11.442 15.482-23.496 12.772-33.749l-19.92 5.314c1.934 7.315-.948 15.915-9.112 24.078z" fill="#BCC1CF"/><path d="M208.674 225.869l11.903-11.903c-19.684-5.275-25.795-19.953-15.81-34.558l-18.254-1.976c-13.994 20.47-5.429 41.045 22.161 48.437zm225.187-29.917c15.059 4.035 22.164 13.575 20.209 24.374l20.02-2.114c2.74-15.136-7.219-28.508-28.325-34.164-26.078-6.987-60.913.012-85.098 15.774l12.481 7.383c17.255-11.245 42.108-16.238 60.713-11.253z" fill="#EDC998"/><path d="M444.705 236.439c-7.996 7.996-19.579 14.085-31.941 17.533l3.431 11.398c17.328-4.832 33.564-13.367 44.77-24.574 7.492-7.492 11.792-15.244 13.121-22.583l-20.02 2.114c-.948 5.236-4.016 10.767-9.361 16.112z" fill="#88CFB2"/><path d="M400.128 256.527l-1.644 12.425a123.203 123.203 0 0017.712-3.582l-3.431-11.398a87.994 87.994 0 01-12.637 2.555z" fill="#EDC998"/><path d="M374.584 255.228c-11.395-3.053-18.232-9.261-20.043-16.779l-19.953 5.165c2.538 10.537 12.121 19.238 28.092 23.518a94.656 94.656 0 0035.806 1.82l1.644-12.425a67.508 67.508 0 01-25.546-1.299z" fill="#E08297"/><path d="M334.584 243.615l19.953-5.164c-1.742-7.234 1.168-15.681 9.195-23.708a58.32 58.32 0 019.411-7.536l-12.481-7.384a81.754 81.754 0 00-13.19 10.563c-11.251 11.251-15.331 23.09-12.888 33.229z" fill="#BCC1CF"/><g filter="url(#filter1_d_232_549)"><path d="M587.855 237.217c19.973 5.352 25.966 20.385 15.355 35.2l18.071 2.233c14.871-20.764 6.472-41.835-21.522-49.336-13.19-3.535-28.622-3.481-43.784-.537l.643 12.057c10.817-2.1 21.827-2.139 31.237.383z" fill="#573CDA"/><path d="M501.472 251.65c-17.696 17.696-17.676 36.85-2.368 48.542l16.939-9.553c-10.922-8.341-10.936-22.007 1.69-34.632 9.48-9.48 24-16.283 38.886-19.173l-.642-12.057c-20.865 4.051-41.217 13.586-54.505 26.873z" fill="#E08297"/><path d="M598.704 277.704c-16.369 16.368-47.765 24.781-70.124 18.79a35.782 35.782 0 01-12.538-5.854l-16.939 9.552a50.128 50.128 0 0017.573 8.205c31.34 8.398 75.345-3.394 98.288-26.336a59.347 59.347 0 006.317-7.41l-18.071-2.233a42.445 42.445 0 01-4.506 5.286z" fill="url(#paint0_linear_232_549)"/></g></g><defs><filter id="filter0_d_232_549" x="31.24" y="107.068" width="657.725" height="320.822" filterUnits="userSpaceOnUse" color-interpolation-filters="sRGB"><feFlood flood-opacity="0" result="BackgroundImageFix"/><feColorMatrix in="SourceAlpha" values="0 0 0 0 0 0 0 0 0 0 0 0 0 0 0 0 0 0 127 0" result="hardAlpha"/><feOffset dy="4"/><feGaussianBlur stdDeviation="2"/><feComposite in2="hardAlpha" operator="out"/><feColorMatrix values="0 0 0 0 0 0 0 0 0 0 0 0 0 0 0 0 0 0 0.15 0"/><feBlend in2="BackgroundImageFix" result="effect1_dropShadow_232_549"/><feBlend in="SourceGraphic" in2="effect1_dropShadow_232_549" result="shape"/></filter><filter id="filter1_d_232_549" x="483.896" y="222.612" width="148.637" height="96.492" filterUnits="userSpaceOnUse" color-interpolation-filters="sRGB"><feFlood flood-opacity="0" result="BackgroundImageFix"/><feColorMatrix in="SourceAlpha" values="0 0 0 0 0 0 0 0 0 0 0 0 0 0 0 0 0 0 127 0" result="hardAlpha"/><feOffset dy="4"/><feGaussianBlur stdDeviation="2"/><feComposite in2="hardAlpha" operator="out"/><feColorMatrix values="0 0 0 0 0 0 0 0 0 0 0 0 0 0 0 0 0 0 0.15 0"/><feBlend in2="BackgroundImageFix" result="effect1_dropShadow_232_549"/><feBlend in="SourceGraphic" in2="effect1_dropShadow_232_549" result="shape"/></filter><linearGradient id="paint0_linear_232_549" x1="558.039" y1="279.387" x2="565.67" y2="307.865" gradientUnits="userSpaceOnUse"><stop stop-color="#1BC082"/><stop offset="1" stop-color="#23C89A"/></linearGradient></defs></svg>