<svg width="420" height="443" fill="none" xmlns="http://www.w3.org/2000/svg"><g filter="url(#filter0_d_232_1866)"><path transform="matrix(-1 0 0 1 163 186)" fill="url(#paint0_linear_232_1866)" d="M0 0h19v198H0z"/><path transform="matrix(-1 0 0 1 50 127)" fill="url(#paint1_linear_232_1866)" d="M0 0h19v175H0z"/><path transform="matrix(-1 0 0 1 135 192)" fill="url(#paint2_linear_232_1866)" d="M0 0h20v118H0z"/><path transform="matrix(-1 0 0 1 23 125)" fill="url(#paint3_linear_232_1866)" d="M0 0h19v169H0z"/><path transform="matrix(-1 0 0 1 106 293)" fill="url(#paint4_linear_232_1866)" d="M0 0h20v90H0z"/><path transform="matrix(-1 0 0 1 79 302)" fill="url(#paint5_linear_232_1866)" d="M0 0h19v90H0z"/><path transform="matrix(-1 0 0 1 416 45)" fill="url(#paint6_linear_232_1866)" d="M0 0h19v104H0z"/><path transform="matrix(-1 0 0 1 191 316)" fill="url(#paint7_linear_232_1866)" d="M0 0h19v66H0z"/><path transform="matrix(-1 0 0 1 332 181)" fill="url(#paint8_linear_232_1866)" d="M0 0h19v174H0z"/><path transform="matrix(-1 0 0 1 387 45)" fill="url(#paint9_linear_232_1866)" d="M0 0h19v215H0z"/><path transform="matrix(-1 0 0 1 359 237)" fill="url(#paint10_linear_232_1866)" d="M0 0h19v118H0z"/><path transform="matrix(-1 0 0 1 303 150)" fill="url(#paint11_linear_232_1866)" d="M0 0h19v65H0z"/><path transform="matrix(-1 0 0 1 247 250)" fill="url(#paint12_linear_232_1866)" d="M0 0h19v57H0z"/><path transform="matrix(-1 0 0 1 219 301)" fill="url(#paint13_linear_232_1866)" d="M0 0h20v79H0z"/><path transform="matrix(-1 0 0 1 275 209)" fill="url(#paint14_linear_232_1866)" d="M0 0h20v46H0z"/></g><defs><linearGradient id="paint0_linear_232_1866" x1="9.5" y1="0" x2="9.5" y2="198" gradientUnits="userSpaceOnUse"><stop stop-color="#1BC082"/><stop offset="1" stop-color="#23C89A"/></linearGradient><linearGradient id="paint1_linear_232_1866" x1="9.5" y1="0" x2="9.5" y2="175" gradientUnits="userSpaceOnUse"><stop stop-color="#1BC082"/><stop offset="1" stop-color="#23C89A"/></linearGradient><linearGradient id="paint2_linear_232_1866" x1="10" y1="0" x2="10" y2="118" gradientUnits="userSpaceOnUse"><stop stop-color="#573CDA"/><stop offset="1" stop-color="#3D2B93"/></linearGradient><linearGradient id="paint3_linear_232_1866" x1="9.5" y1="0" x2="9.5" y2="169" gradientUnits="userSpaceOnUse"><stop stop-color="#573CDA"/><stop offset="1" stop-color="#3D2B93"/></linearGradient><linearGradient id="paint4_linear_232_1866" x1="10" y1="0" x2="10" y2="90" gradientUnits="userSpaceOnUse"><stop stop-color="#573CDA"/><stop offset="1" stop-color="#3D2B93"/></linearGradient><linearGradient id="paint5_linear_232_1866" x1="9.5" y1="0" x2="9.5" y2="90" gradientUnits="userSpaceOnUse"><stop stop-color="#573CDA"/><stop offset="1" stop-color="#3D2B93"/></linearGradient><linearGradient id="paint6_linear_232_1866" x1="9.5" y1="0" x2="9.5" y2="104" gradientUnits="userSpaceOnUse"><stop stop-color="#1BC082"/><stop offset="1" stop-color="#23C89A"/></linearGradient><linearGradient id="paint7_linear_232_1866" x1="9.5" y1="0" x2="9.5" y2="66" gradientUnits="userSpaceOnUse"><stop stop-color="#1BC082"/><stop offset="1" stop-color="#23C89A"/></linearGradient><linearGradient id="paint8_linear_232_1866" x1="9.5" y1="0" x2="9.5" y2="174" gradientUnits="userSpaceOnUse"><stop stop-color="#1BC082"/><stop offset="1" stop-color="#23C89A"/></linearGradient><linearGradient id="paint9_linear_232_1866" x1="9.5" y1="0" x2="9.5" y2="215" gradientUnits="userSpaceOnUse"><stop stop-color="#573CDA"/><stop offset="1" stop-color="#3D2B93"/></linearGradient><linearGradient id="paint10_linear_232_1866" x1="9.5" y1="0" x2="9.5" y2="118" gradientUnits="userSpaceOnUse"><stop stop-color="#573CDA"/><stop offset="1" stop-color="#3D2B93"/></linearGradient><linearGradient id="paint11_linear_232_1866" x1="9.5" y1="0" x2="9.5" y2="65" gradientUnits="userSpaceOnUse"><stop stop-color="#573CDA"/><stop offset="1" stop-color="#3D2B93"/></linearGradient><linearGradient id="paint12_linear_232_1866" x1="9.5" y1="0" x2="9.5" y2="57" gradientUnits="userSpaceOnUse"><stop stop-color="#573CDA"/><stop offset="1" stop-color="#3D2B93"/></linearGradient><linearGradient id="paint13_linear_232_1866" x1="10" y1="0" x2="10" y2="79" gradientUnits="userSpaceOnUse"><stop stop-color="#573CDA"/><stop offset="1" stop-color="#3D2B93"/></linearGradient><linearGradient id="paint14_linear_232_1866" x1="10" y1="0" x2="10" y2="46" gradientUnits="userSpaceOnUse"><stop stop-color="#573CDA"/><stop offset="1" stop-color="#3D2B93"/></linearGradient><filter id="filter0_d_232_1866" x="0" y="-2" width="420" height="451" filterUnits="userSpaceOnUse" color-interpolation-filters="sRGB"><feFlood flood-opacity="0" result="BackgroundImageFix"/><feColorMatrix in="SourceAlpha" values="0 0 0 0 0 0 0 0 0 0 0 0 0 0 0 0 0 0 127 0" result="hardAlpha"/><feOffset dy="2"/><feGaussianBlur stdDeviation="2"/><feComposite in2="hardAlpha" operator="out"/><feColorMatrix values="0 0 0 0 0 0 0 0 0 0 0 0 0 0 0 0 0 0 0.25 0"/><feBlend in2="BackgroundImageFix" result="effect1_dropShadow_232_1866"/><feBlend in="SourceGraphic" in2="effect1_dropShadow_232_1866" result="shape"/></filter></defs></svg>