<svg width="245" height="245" fill="none" xmlns="http://www.w3.org/2000/svg"><ellipse cx="121" cy="121.5" rx="101" ry="101.5" fill="#fff"/><path d="M183.75 183.75c33.827-33.827 33.827-88.672 0-122.5-33.827-33.827-88.673-33.827-122.5 0s-33.827 88.673 0 122.5 88.673 33.827 122.5 0z" fill="#3D2B93"/><path d="M122.494 196.427c40.829 0 73.927-33.098 73.927-73.927 0-40.83-33.098-73.928-73.927-73.928-40.83 0-73.928 33.099-73.928 73.928s33.099 73.927 73.928 73.927z" fill="#573CDA"/><path d="M122.499 200.13c-42.805 0-77.63-34.824-77.63-77.63s34.825-77.63 77.63-77.63c42.805 0 77.63 34.824 77.63 77.63s-34.825 77.63-77.63 77.63zm0-151.557c-40.763 0-73.927 33.163-73.927 73.927 0 40.764 33.163 73.927 73.927 73.927 40.764 0 73.927-33.163 73.927-73.927 0-40.764-33.163-73.927-73.927-73.927z" fill="#fff"/><path d="M154.39 154.347c17.601-17.6 17.601-46.137 0-63.738-17.6-17.6-46.137-17.6-63.738 0-17.6 17.601-17.6 46.138 0 63.738 17.601 17.601 46.138 17.601 63.738 0z" fill="#3D2B93"/><path d="M122.509 171.273c-26.894 0-48.773-21.879-48.773-48.772 0-26.894 21.88-48.773 48.773-48.773 26.893 0 48.772 21.88 48.772 48.773 0 26.893-21.879 48.772-48.772 48.772zm0-90.14c-22.81 0-41.367 18.558-41.367 41.368 0 22.809 18.557 41.367 41.367 41.367 22.809 0 41.367-18.558 41.367-41.367 0-22.81-18.558-41.367-41.367-41.367z" fill="#fff"/><path d="M134.838 134.847c6.819-6.819 6.819-17.875 0-24.694-6.819-6.819-17.875-6.819-24.694 0-6.819 6.819-6.819 17.875 0 24.694 6.819 6.819 17.875 6.819 24.694 0z" fill="url(#paint0_linear_232_1569)"/><path d="M122.492 143.664c-11.67 0-21.164-9.494-21.164-21.164 0-11.671 9.494-21.165 21.164-21.165 11.67 0 21.164 9.494 21.164 21.165 0 11.67-9.494 21.164-21.164 21.164zm0-34.923c-7.586 0-13.758 6.172-13.758 13.759 0 7.587 6.172 13.759 13.758 13.759 7.587 0 13.759-6.172 13.759-13.759 0-7.587-6.172-13.759-13.759-13.759z" fill="#fff"/><path d="M135.514 109.716l1.84 1.839 69.643-69.645-1.839-1.84-69.644 69.646z" fill="#2A206A"/><path d="M136.817 105.278c1.055-1.055 6.03 3.919 4.974 4.974l-18.449 14.504c-.681.536-1.564-.347-1.029-1.029l14.504-18.449z" fill="#2A206A"/><path d="M206.956 41.951l9.369.931-12.862 12.863a19.888 19.888 0 01-16.027 5.726l19.52-19.52z" fill="#1BC082"/><path d="M205.123 40.11l-.931-9.368-12.862 12.862a19.896 19.896 0 00-5.727 16.027l19.52-19.52z" fill="url(#paint1_linear_232_1569)"/><defs><linearGradient id="paint0_linear_232_1569" x1="110.144" y1="110.153" x2="134.838" y2="134.847" gradientUnits="userSpaceOnUse"><stop stop-color="#1BC082"/><stop offset="1" stop-color="#23C89A"/></linearGradient><linearGradient id="paint1_linear_232_1569" x1="195.315" y1="30.742" x2="195.315" y2="59.631" gradientUnits="userSpaceOnUse"><stop stop-color="#1BC082"/><stop offset="1" stop-color="#23C89A"/></linearGradient></defs></svg>