<svg width="163" height="206" fill="none" xmlns="http://www.w3.org/2000/svg"><path d="M105.913 194.585l-25.499 11.037-18.169-7.955C24.562 181.167.23 144.03.23 103.015l.933-81.347L81.126.86l81.337 21.736-.933 87.493c0 36.688-21.847 69.879-55.617 84.495z" fill="#fff"/><path d="M102.245 182.826l-21.96 9.749-15.648-7.027c-32.455-14.574-53.41-47.375-53.41-83.602l.803-71.85L80.849 12.49l70.099 18.426-.803 77.279c0 32.405-18.815 61.721-47.9 74.631z" fill="#3D2B93"/><path d="M80.85 12.49l-1.008.258v179.627l.444.2 21.961-9.749c29.084-12.91 47.9-42.226 47.9-74.631l.803-77.279-70.1-18.426z" fill="#573CDA"/><path d="M116.122 79.842c-8.489 0-14.203.295-14.121.079 1.341-3.597 3.353-6.608 5.821-8.71C110.289 69.112 113.117 68 116 68c2.883 0 5.712 1.11 8.179 3.212 2.467 2.1 4.48 5.112 5.821 8.709 0 0-5.937-.079-13.878-.079z" fill="#fff"/><path d="M115.394 95.31c-15.097 0-27.378-12.282-27.378-27.378 0-15.097 12.281-27.379 27.378-27.379s27.378 12.282 27.378 27.379c0 15.096-12.281 27.378-27.378 27.378zm0-54.06c-14.713 0-26.683 11.97-26.683 26.682 0 14.713 11.97 26.682 26.683 26.682s26.682-11.97 26.682-26.682c0-14.713-11.969-26.683-26.682-26.683z" fill="#fff"/><path d="M122.61 57.856a7.313 7.313 0 10-14.437-2.34 7.313 7.313 0 0014.437 2.34zm-74.732 89.842c-15.096 0-27.378-12.282-27.378-27.378s12.282-27.378 27.378-27.378c15.097 0 27.378 12.282 27.378 27.378s-12.281 27.378-27.378 27.378zm0-54.06c-14.712 0-26.682 11.969-26.682 26.682s11.97 26.682 26.682 26.682c14.713 0 26.683-11.969 26.683-26.682S62.59 93.638 47.878 93.638z" fill="#fff"/><path d="M48.122 131.842c-8.49 0-14.203.295-14.121.079 1.34-3.597 3.354-6.608 5.82-8.709 2.468-2.101 5.297-3.212 8.18-3.212 2.882 0 5.71 1.111 8.178 3.212 2.467 2.101 4.48 5.112 5.821 8.709 0 0-5.937-.079-13.878-.079zm-.246-15.457a7.312 7.312 0 100-14.624 7.312 7.312 0 000 14.624z" fill="#fff"/><path d="M27.623 58.39l7.657 26.937 23.6-15.072-6.38-2.421c1.732-5.612 5.157-13.443 12.074-20.642 13.912-14.48 29.92-10.27 34.106-10.456-5.349-3.39-22.693-13.44-43.364-.897-12.451 7.556-18.54 18.477-21.282 24.985l-6.411-2.433zm109.17 72.853l-7.657-26.936-23.6 15.071 6.38 2.422c-1.732 5.612-5.157 13.443-12.074 20.642-13.912 14.48-29.92 10.27-34.106 10.455 5.349 3.391 22.694 13.441 43.364.898 12.452-7.556 18.541-18.478 21.282-24.986l6.411 2.434z" fill="#1BC082"/></svg>