<svg width="226" height="224" fill="none" xmlns="http://www.w3.org/2000/svg"><path d="M9.862 207.391c-5.308-5.621-5.055-14.482.566-19.791l74.675-70.521 24.961 26.432-74.674 70.521c-5.622 5.308-14.482 5.055-19.791-.567l-5.737-6.074z" fill="#fff"/><circle cx="134.355" cy="91.773" r="64.802" transform="rotate(-45 134.355 91.773)" fill="#fff"/><g opacity=".4"><mask id="a" style="mask-type:alpha" maskUnits="userSpaceOnUse" x="83" y="41" width="102" height="102"><circle cx="134.117" cy="91.853" r="50.187" fill="#C4C4C4"/></mask><g mask="url(#a)" fill="#1BC082"><path d="M138.806 41.666h65.536L173.333 144.33h-69.556l35.029-102.664zm-16.978 0h14.389L101.181 144.33H86.793l35.035-102.664zm-15.594 0h14.333l-34.9 102.664H71.334l34.9-102.664zm-8.906 0h8.356L70.553 144.33h-8.377L97.328 41.666z"/></g></g><path d="M101.305 126.601a44.303 44.303 0 01-2.866-3.233l-19.02 18.573c-1.169 1.142-.766 3.449.899 5.155 1.665 1.705 3.963 2.162 5.132 1.021l19.02-18.574a45.943 45.943 0 01-3.165-2.942z" fill="#3D2B93"/><path d="M169.414 57.22c-18.963-19.42-50.174-19.694-69.712-.61-19.538 19.084-20.004 50.297-1.04 69.717 18.962 19.421 50.174 19.693 69.711.61 19.538-19.084 20.004-50.297 1.041-69.718zm-66.668 65.118c-16.774-17.178-16.362-44.788.92-61.668 17.282-16.88 44.89-16.64 61.664.539 16.774 17.178 16.362 44.788-.921 61.668-17.282 16.881-44.89 16.639-61.663-.539z" fill="#1BC082"/><path d="M20.349 208.11l-2.956-3.066a7.705 7.705 0 01.199-10.896l54.91-53.237a7.71 7.71 0 0110.897.199l2.956 3.066a7.706 7.706 0 01-.2 10.896l-54.91 53.237a7.696 7.696 0 01-5.49 2.157 7.701 7.701 0 01-5.406-2.356zM191 91.5c0 31.204-25.52 56.5-57 56.5s-57-25.296-57-56.5S102.52 35 134 35s57 25.296 57 56.5zm-105.206 0c0 26.389 21.583 47.783 48.206 47.783 26.623 0 48.206-21.394 48.206-47.783 0-26.39-21.583-47.783-48.206-47.783-26.623 0-48.206 21.393-48.206 47.783z" fill="#573CDA"/></svg>