<svg width="116" height="102" fill="none" xmlns="http://www.w3.org/2000/svg"><path d="M101.511 73.905a11.52 11.52 0 00-8.455 3.7l-25.15-14.07a11.512 11.512 0 00-8.739-16.31v-23.24a11.557 11.557 0 10-3.426 0v23.24a11.53 11.53 0 00-8.478 16.847l-25 13.985a11.478 11.478 0 101.79 2.926l25.278-14.14a11.517 11.517 0 0016.663-.449l25.118 14.052a11.548 11.548 0 1010.399-6.54zm-88.11 19.682a8.128 8.128 0 118.128-8.129 8.14 8.14 0 01-8.129 8.129zM49.323 12.57a8.13 8.13 0 118.13 8.129 8.139 8.139 0 01-8.13-8.13zm8.13 54.193a8.126 8.126 0 118.13-8.127 8.137 8.137 0 01-8.13 8.127zm44.057 26.823a8.128 8.128 0 118.128-8.129 8.138 8.138 0 01-8.128 8.129z" fill="#573CDA"/><circle cx="57.5" cy="14.5" r="14.5" fill="#1BC082"/><circle cx="57.5" cy="58.5" r="12.5" fill="#1BC082"/><circle cx="14.5" cy="87.5" r="14.5" fill="#1BC082"/><circle cx="101.5" cy="87.5" r="14.5" fill="#1BC082"/></svg>