<svg width="168" height="125" fill="none" xmlns="http://www.w3.org/2000/svg"><path d="M64.596 84.722a11.522 11.522 0 0010.915 7.873 11.4 11.4 0 005.04-1.175l9.924 13.841a11.491 11.491 0 00-1.135 14.844 11.486 11.486 0 0014.471 3.499 11.48 11.48 0 006.156-8.387c.019-.112.025-.224.04-.336l18.514-1.833a11.495 11.495 0 0022.581-3.189 11.5 11.5 0 00-5.081-9.363l7.678-16.95a11.475 11.475 0 0011.539-17.957 11.525 11.525 0 00-9.349-4.8c-1.747 0-3.47.403-5.037 1.175l-9.934-13.852a11.43 11.43 0 001.199-14.775 11.483 11.483 0 00-20.785 5.764l-18.065 1.783a11.366 11.366 0 00-1.734-3.681 11.47 11.47 0 00-14.634-3.498l-9.966-13.903a11.49 11.49 0 10-19.496-9.955c-.05.31-.08.621-.106.932l-18.06 1.784A11.488 11.488 0 1021.777 25.11l-7.484 16.522A11.495 11.495 0 1016.556 63.1l9.923 13.84a11.485 11.485 0 1019.524 9.617l18.593-1.835zm4.683.842a7.665 7.665 0 016.218-12.13 7.694 7.694 0 016.24 3.202 7.663 7.663 0 11-12.458 8.928zm36.91 29.029a7.669 7.669 0 01-7.555 6.418 7.665 7.665 0 01-6.825-11.163 7.67 7.67 0 016.253-4.144 7.668 7.668 0 016.795 3.18 7.593 7.593 0 011.332 5.709zm37.879 1.668a7.614 7.614 0 01-4.452 1.433 7.7 7.7 0 01-6.24-3.199 7.664 7.664 0 1110.692 1.766zm18.057-48.44a7.667 7.667 0 011.339 5.716 7.65 7.65 0 01-3.099 4.986 7.655 7.655 0 01-5.717 1.33 7.658 7.658 0 01-4.982-3.106 7.667 7.667 0 012.233-11.001 7.662 7.662 0 013.99-1.126 7.68 7.68 0 016.236 3.2zm-33.819-34.013a7.663 7.663 0 0111.452 3.058 7.666 7.666 0 01-13.211 7.637 7.62 7.62 0 01-1.351-5.714 7.614 7.614 0 013.11-4.981zm-24.655 10.886l18.011-1.777a11.459 11.459 0 0016.153 7.441l9.934 13.855a11.409 11.409 0 00-3.258 9.57 11.416 11.416 0 005.617 8.405l-7.583 16.737a11.483 11.483 0 00-14.386 10.311l-18.256 1.807a11.464 11.464 0 00-6.179-8.012 11.466 11.466 0 00-10.118-.003l-9.934-13.856a11.41 11.41 0 00-1.446-17.39l7.545-16.664a11.464 11.464 0 0013.9-10.424zm-5.23-5.26a7.667 7.667 0 11-12.46 8.939 7.667 7.667 0 0112.46-8.939zM61.217 10.468a7.667 7.667 0 0114.101-2.754 7.664 7.664 0 01-12.765 8.467 7.611 7.611 0 01-1.336-5.713zM20.63 14.333a7.672 7.672 0 111.336 5.71 7.618 7.618 0 01-1.336-5.71zM5.283 57.245a7.66 7.66 0 116.236 3.199 7.626 7.626 0 01-6.236-3.199zm33.812 34.009a7.664 7.664 0 111.762-10.694 7.607 7.607 0 01-1.762 10.694zM34.623 73.53c-1.745 0-3.466.402-5.031 1.173L19.658 60.85a11.44 11.44 0 00-1.856-17.68l7.467-16.488a11.47 11.47 0 0014.386-10.31l18.003-1.776a11.479 11.479 0 0016.165 7.442l10.014 13.97a11.474 11.474 0 001.934 17.422l-7.484 16.522a11.486 11.486 0 00-14.122 9.278c-.088.561-.135 1.13-.14 1.698l-18.145 1.79a11.465 11.465 0 00-11.257-9.188z" fill="#573CDA"/><circle cx="34" cy="85" r="12" fill="#1BC082"/><circle cx="99" cy="113" r="12" fill="#1BC082"/><circle cx="12" cy="53" r="12" fill="#1BC082"/><circle cx="28" cy="15" r="12" fill="#1BC082"/><circle cx="69" cy="12" r="12" fill="#1BC082"/><circle cx="133" cy="40" r="12" fill="#1BC082"/><circle cx="92" cy="44" r="12" fill="#1BC082"/><circle cx="156" cy="72" r="12" fill="#1BC082"/><circle cx="76" cy="81" r="12" fill="#1BC082"/><circle cx="140" cy="110" r="12" fill="#1BC082"/></svg>