<svg width="128" height="103" fill="none" xmlns="http://www.w3.org/2000/svg"><path d="M15.7 77.244c2.315.681 4.35 2.09 5.804 4.02a11.285 11.285 0 012.273 6.691c1.19.108 2.38.186 3.575.229a13.51 13.51 0 01.54-3.284 13.264 13.264 0 014.558-6.668 13.219 13.219 0 0115.352-.636 13.259 13.259 0 015.092 6.268 64.642 64.642 0 004.064-1.723 15.762 15.762 0 01-1.013-10.248 15.736 15.736 0 015.528-8.68 15.68 15.68 0 0119.42-.05 64.227 64.227 0 002.975-4.126 30.591 30.591 0 01-15.001-16.613 30.674 30.674 0 01.307-22.403A30.587 30.587 0 0184.625 3.828a30.49 30.49 0 0122.32-1.311 30.561 30.561 0 0117.234 14.273 30.67 30.67 0 012.918 22.214 30.616 30.616 0 01-12.962 18.255 30.499 30.499 0 01-21.899 4.52 31.795 31.795 0 01-3.717-.873c-.195-.059-.376-.143-.57-.205a69.002 69.002 0 01-4.022 5.601 15.767 15.767 0 01.705 17.595 15.726 15.726 0 01-6.902 6.077 15.685 15.685 0 01-18.43-4.146 73.04 73.04 0 01-5.494 2.322 13.177 13.177 0 01-.532 4.4 13.287 13.287 0 01-5.706 7.453 13.241 13.241 0 01-10.806 1.435 13.156 13.156 0 01-7.853-6.43 13.387 13.387 0 01-1.022-2.465 68.852 68.852 0 01-4.844-.313 11.408 11.408 0 01-4.971 5.874 11.37 11.37 0 01-7.562 1.372c-.468-.079-.93-.188-1.384-.328a11.418 11.418 0 01-6.766-5.537 11.458 11.458 0 01-.876-8.709 11.432 11.432 0 015.525-6.78 11.392 11.392 0 018.691-.878zm77.262-19.733a26.313 26.313 0 0018.989-4.045 26.409 26.409 0 0011.074-15.978 26.457 26.457 0 00-2.848-19.243 26.365 26.365 0 00-15.226-12.068 26.953 26.953 0 00-3.203-.755 26.316 26.316 0 00-19.653 4.525 26.42 26.42 0 00-10.71 17.12 26.458 26.458 0 004.5 19.698A26.353 26.353 0 0092.962 57.51zM67.959 86.55a11.394 11.394 0 0012.13-3.717 11.452 11.452 0 001.215-12.652 11.428 11.428 0 00-4.697-4.685 11.396 11.396 0 00-12.62 1.274 11.44 11.44 0 00-3.67 5.53 11.486 11.486 0 00.885 8.706 11.446 11.446 0 006.757 5.544zm-35.244 6.407A8.938 8.938 0 0037.182 97c1.91.789 4.035.89 6.012.284a8.934 8.934 0 004.828-3.602 8.966 8.966 0 00-1.135-11.3 8.918 8.918 0 00-11.282-1.088 8.95 8.95 0 00-3.574 4.852 8.904 8.904 0 00.684 6.81zm-22.344 2.046a7.081 7.081 0 005.402-.546 7.106 7.106 0 003.434-4.215 7.122 7.122 0 00-.546-5.414 7.098 7.098 0 00-5.066-3.642 7.082 7.082 0 00-5.11 1.09 7.121 7.121 0 00-2.212 9.48 7.096 7.096 0 004.098 3.247z" fill="#573CDA"/><circle cx="12" cy="88" r="12" fill="#1BC082"/><circle cx="41" cy="89" r="14" fill="#1BC082"/><circle cx="71.5" cy="75.5" r="16.5" fill="#1BC082"/><circle cx="96.5" cy="31.5" r="31.5" fill="#1BC082"/></svg>