<svg width="720" height="527" fill="none" xmlns="http://www.w3.org/2000/svg"><g filter="url(#filter0_d_232_592)"><path d="M495.509 420.167L35.292 296.852 224.8 107.344l460.216 123.315-189.507 189.508z" fill="url(#paint0_linear_232_592)"/><path d="M82.05 291.684l413.843 110.889M92.81 280.924l413.843 110.889M103.566 270.166l413.843 110.889M114.328 259.406L528.17 370.295M125.084 248.648l413.842 110.889M135.846 237.89l413.842 110.889M146.602 227.132l413.842 110.889M157.361 216.372l413.843 110.889M168.123 205.612l413.842 110.889M178.879 194.854l413.842 110.889M189.639 184.096l413.842 110.889M200.396 173.338l413.843 110.889M211.156 162.578l413.843 110.889M221.918 151.819L635.76 262.708M232.674 141.061L646.516 251.95M243.434 130.302l413.842 110.889" stroke="#2A206A" stroke-linecap="round" stroke-linejoin="round"/><path d="M72.722 288.086c-.612-.164-.92-.418-.92-.761.002-.342.217-.735.643-1.18l.436-.445.46-.452a4.29 4.29 0 011.49-.953c.543-.198 1.12-.214 1.732-.05.613.164.917.417.914.759.002.343-.21.737-.637 1.182a20.31 20.31 0 01-.446.455c-.2.199-.35.346-.45.441a4.256 4.256 0 01-1.497.952c-.538.199-1.113.216-1.725.052zm.32-.32c.418.112.835.095 1.252-.05.425-.148.83-.409 1.217-.784.108-.101.253-.243.434-.424.182-.182.318-.321.41-.419.36-.372.533-.691.521-.956-.004-.267-.215-.456-.633-.568a2.094 2.094 0 00-1.27.059c-.42.149-.82.407-1.199.774l-.423.414-.42.429c-.367.38-.547.701-.54.965.016.261.233.448.651.56zm16.166-22.422c-.048-.013-.077-.034-.084-.063-.008-.029.006-.062.041-.097l3.18-3.18-2.04.387a.357.357 0 01-.13-.001c-.048-.013-.073-.04-.075-.081l-.006-.096a.12.12 0 01.038-.085.297.297 0 01.157-.073l2.427-.459a.533.533 0 01.227.014l.138.037c.049.013.077.034.085.063.008.029-.006.061-.042.097l-3.5 3.5a.293.293 0 01-.277.074l-.139-.037zm3.084.894c-.612-.164-.92-.418-.921-.761.003-.342.218-.735.644-1.18l.436-.445.46-.451a4.293 4.293 0 011.49-.954c.543-.198 1.12-.214 1.732-.05.613.164.917.417.914.759.002.343-.21.737-.637 1.182-.095.101-.244.253-.446.455-.2.2-.35.346-.45.441a4.256 4.256 0 01-1.498.952c-.537.199-1.112.216-1.724.052zm.32-.32c.418.112.835.095 1.252-.05.424-.148.83-.409 1.217-.783a23.692 23.692 0 00.843-.843c.36-.373.534-.692.522-.957-.004-.267-.215-.456-.633-.568a2.102 2.102 0 00-1.27.059c-.42.149-.82.407-1.199.774l-.423.414-.42.429c-.367.38-.547.701-.54.965.016.261.233.448.651.56zm14.786-22.789c-.048-.013-.077-.034-.084-.063-.008-.029.006-.061.041-.097l.08-.08c.071-.071.207-.13.406-.175l3.27-.876c.449-.11.781-.215.998-.315a1.98 1.98 0 00.581-.405c.239-.239.331-.451.276-.637-.049-.184-.246-.323-.591-.415a1.903 1.903 0 00-.988-.001 2.362 2.362 0 00-.91.466.313.313 0 01-.157.073.283.283 0 01-.134.005l-.145-.039c-.049-.013-.079-.032-.09-.058-.003-.028.01-.056.038-.084.184-.172.42-.328.707-.467a3.08 3.08 0 01.953-.279c.352-.05.701-.029 1.046.064.52.139.803.346.849.62.046.274-.085.565-.395.875a2.624 2.624 0 01-.765.525 6.454 6.454 0 01-1.144.377l-2.975.813 2.441.654c.054.014.084.036.092.065.008.029-.008.063-.047.103l-.08.08a.27.27 0 01-.136.071.28.28 0 01-.149.001l-2.988-.801zm5.73 1.603c-.612-.164-.919-.417-.921-.76.003-.342.218-.736.645-1.181l.435-.445.461-.451a4.308 4.308 0 011.49-.954c.542-.197 1.12-.214 1.732-.05.612.164.916.417.913.759.002.343-.21.737-.637 1.182-.094.101-.243.253-.446.456-.199.199-.349.346-.45.441a4.26 4.26 0 01-1.497.951c-.538.199-1.112.216-1.725.052zm.32-.32c.418.112.835.096 1.252-.05.425-.148.831-.409 1.218-.783a25.875 25.875 0 00.842-.843c.361-.373.535-.691.522-.956-.004-.267-.215-.457-.632-.569a2.104 2.104 0 00-1.27.059c-.42.149-.82.407-1.199.775l-.424.414-.419.429c-.368.379-.548.701-.54.964.016.262.233.448.65.56zm16.637-22.224c-.35-.094-.613-.219-.79-.375-.172-.154-.259-.319-.262-.496-.002-.176.072-.346.223-.508a.23.23 0 01.118-.063.284.284 0 01.136.002l.102.028c.049.013.081.032.097.059.02.024.012.062-.023.116-.142.228-.136.417.016.566.158.15.392.267.703.35.389.105.767.12 1.136.048.368-.073.68-.237.937-.493.49-.491.333-.845-.474-1.061l-.641-.172c-.049-.013-.077-.034-.085-.063-.008-.029.006-.062.042-.097l.08-.08a.566.566 0 01.193-.111l2.798-.894-2.201-.589c-.048-.014-.077-.035-.084-.064-.008-.029.006-.061.041-.097l.08-.08a.297.297 0 01.129-.074.271.271 0 01.154-.006l2.719.729c.053.014.084.036.092.065.007.029-.008.063-.047.102l-.08.08a.42.42 0 01-.16.086l-2.856.906.146.039c.515.138.832.336.95.593.124.258.011.562-.337.911a2.471 2.471 0 01-.824.537 3.168 3.168 0 01-1.003.218 3.401 3.401 0 01-1.025-.112zm4.36 1.168c-.613-.164-.92-.418-.921-.761.003-.342.218-.736.644-1.181l.436-.444.46-.452a4.317 4.317 0 011.49-.954c.543-.197 1.12-.214 1.732-.05.612.164.917.417.914.759.001.343-.211.738-.637 1.182a23.03 23.03 0 01-.447.456c-.199.199-.349.346-.45.441a4.26 4.26 0 01-1.497.952c-.537.198-1.112.216-1.724.052zm.32-.32c.418.112.835.095 1.251-.051.425-.147.831-.408 1.218-.783.108-.102.253-.243.434-.425.181-.181.318-.321.409-.418.36-.372.534-.691.522-.956-.004-.267-.215-.457-.633-.569a2.104 2.104 0 00-1.27.059c-.42.149-.82.408-1.199.775l-.424.414-.419.429c-.367.379-.547.701-.54.965.016.261.233.448.651.56zm17.416-22.087c-.049-.013-.077-.034-.085-.064-.007-.029.006-.061.042-.097l.843-.843-2.405-.644c-.049-.013-.077-.034-.085-.063-.007-.029.006-.062.042-.097l.085-.086a.668.668 0 01.241-.138l4.536-1.728a.489.489 0 01.173-.034.545.545 0 01.187.016l.299.08c.049.013.077.034.085.063.008.029-.006.062-.042.097l-2.337 2.337.664.178c.048.013.076.034.084.063.008.029-.006.062-.042.097l-.085.086a.276.276 0 01-.129.073.28.28 0 01-.149.001l-.663-.178-.843.843a.29.29 0 01-.278.075l-.138-.037zm1.12-1.324l2.076-2.075-4.065 1.542 1.989.533zm2.447 2.347c-.612-.164-.919-.418-.921-.761.003-.342.218-.735.644-1.18l.436-.445.461-.452a4.287 4.287 0 011.489-.953c.543-.198 1.12-.214 1.732-.05.612.164.917.417.914.759.002.343-.211.737-.637 1.182-.095.101-.244.253-.446.455-.2.199-.35.346-.451.441a4.245 4.245 0 01-1.497.952c-.537.199-1.112.216-1.724.052zm.32-.32c.418.112.835.095 1.251-.05.425-.148.831-.409 1.218-.784.108-.101.253-.243.434-.424.182-.182.318-.321.409-.419.36-.372.534-.691.522-.956-.004-.267-.215-.456-.633-.568a2.093 2.093 0 00-1.269.059c-.42.149-.82.407-1.2.774l-.423.414-.42.429c-.367.38-.547.701-.54.965.016.261.233.448.651.56zm16.751-22.197c-.34-.091-.59-.217-.751-.377-.151-.162-.221-.336-.207-.522.018-.185.108-.364.269-.537l.01-.011a.2.2 0 01.101-.054.284.284 0 01.136.003l.138.037c.049.013.079.032.09.058.015.022.005.06-.03.113-.144.237-.158.438-.041.605.116.167.318.288.605.365.374.1.764.101 1.171.003a2.167 2.167 0 001.054-.584c.178-.178.275-.348.29-.511a.492.492 0 00-.163-.429c-.128-.124-.311-.218-.549-.282a1.81 1.81 0 00-.532-.069 3.887 3.887 0 00-.507.054c-.112.02-.201.032-.267.037a.47.47 0 01-.173-.013l-.131-.035c-.044-.012-.072-.033-.084-.063-.01-.034.004-.066.041-.097l1.963-1.686a.394.394 0 01.135-.079c.05-.014.1-.014.148-.001l2.376.637c.049.013.077.034.085.063.008.029-.006.061-.042.097l-.085.085a.288.288 0 01-.278.075l-2.091-.561-1.359 1.165a2.809 2.809 0 011.121.071c.331.088.581.214.751.377a.658.658 0 01.223.58c-.022.22-.16.456-.412.708a2.895 2.895 0 01-.917.621 3.17 3.17 0 01-2.088.157zm4.375 1.172c-.613-.164-.92-.417-.921-.761.003-.341.217-.735.644-1.18l.435-.445.461-.451a4.308 4.308 0 011.49-.954c.542-.197 1.12-.214 1.732-.05.612.164.917.417.914.759.001.343-.211.737-.638 1.182-.094.101-.243.253-.446.456-.199.199-.349.346-.45.44a4.231 4.231 0 01-1.497.952c-.537.199-1.112.216-1.724.052zm.32-.32c.417.112.835.095 1.251-.05.425-.148.831-.409 1.218-.783a25.875 25.875 0 00.843-.843c.36-.373.534-.691.521-.956-.003-.267-.214-.457-.632-.569a2.104 2.104 0 00-1.27.059c-.42.149-.82.407-1.199.775l-.424.414-.419.428c-.368.38-.547.702-.54.965.016.262.233.448.651.56zm16.694-22.209c-.374-.101-.636-.245-.786-.434a.694.694 0 01-.141-.626c.056-.229.194-.453.415-.674.309-.309.777-.583 1.403-.821l2.914-1.093a.853.853 0 01.074-.028.534.534 0 01.128-.027.372.372 0 01.131.008l.138.038c.044.011.065.033.065.064.008.029-.005.06-.037.092a.34.34 0 01-.105.06l-2.225.838c.175.01.354.04.539.09.374.1.636.245.786.434a.675.675 0 01.146.621c-.056.228-.195.453-.415.673a2.904 2.904 0 01-.823.564 3.392 3.392 0 01-1.069.302 2.99 2.99 0 01-1.138-.081zm.32-.32c.233.062.485.084.755.067.274-.022.543-.087.807-.197a2.12 2.12 0 00.689-.458c.195-.196.302-.379.319-.55a.511.511 0 00-.161-.449c-.124-.128-.303-.224-.536-.286a2.248 2.248 0 00-.761-.062c-.27.018-.538.082-.801.191-.26.107-.488.257-.684.453-.196.196-.304.381-.325.556a.533.533 0 00.156.454c.128.125.309.218.542.281zm3.994 1.476c-.612-.164-.919-.418-.92-.761.003-.342.217-.735.644-1.18l.435-.445.461-.452a4.29 4.29 0 011.49-.953c.542-.198 1.12-.215 1.732-.051.612.164.917.417.914.759.001.344-.211.738-.638 1.183-.094.101-.243.252-.446.455-.199.199-.349.346-.45.441a4.268 4.268 0 01-1.497.952c-.537.199-1.112.216-1.725.052zm.321-.32c.417.112.835.095 1.251-.051.425-.147.831-.408 1.218-.783.108-.102.252-.243.434-.425.181-.181.317-.32.409-.418.36-.372.534-.691.521-.956-.004-.267-.214-.456-.632-.568a2.096 2.096 0 00-1.27.059c-.42.149-.82.407-1.199.774l-.424.414-.419.429c-.368.38-.548.701-.54.965.016.261.233.448.651.56zm16.725-22.27c-.044-.012-.07-.033-.078-.062.001-.031.017-.063.049-.095l.063-.044 5.122-2.747-2.485-.666c-.049-.013-.077-.034-.085-.063-.008-.03.006-.062.042-.098l.08-.08a.276.276 0 01.129-.073.271.271 0 01.154-.006l2.813.753c.054.015.084.037.092.066.008.029-.008.063-.047.102l-.08.08c-.068.068-.15.129-.248.184l-5.045 2.707a1.08 1.08 0 01-.182.08.242.242 0 01-.141.003l-.153-.041zm4.627 1.307c-.612-.164-.919-.417-.921-.761.004-.342.218-.735.645-1.18l.435-.445.461-.451a4.308 4.308 0 011.49-.954c.542-.198 1.12-.214 1.732-.05.612.164.917.417.913.759.002.343-.21.737-.637 1.182-.094.101-.243.253-.446.455-.199.2-.349.347-.45.441a4.263 4.263 0 01-1.497.952c-.538.199-1.112.216-1.725.052zm.321-.32c.417.112.835.095 1.251-.05.425-.148.831-.409 1.218-.783a25.875 25.875 0 00.843-.843c.36-.373.534-.692.521-.956-.004-.268-.214-.457-.632-.569a2.104 2.104 0 00-1.27.059c-.42.149-.82.407-1.199.774l-.424.415-.419.428c-.368.38-.548.702-.54.965.016.261.233.448.651.56z" fill="#2A206A"/><path d="M153.627 220.102s47.835-32.833 91.006-21.266c43.171 11.568 16.481 47.352 61.081 57.292 43.934 9.79 107.696-52.992 144.072-43.246 36.375 9.747-1.584 40.501 43.683 52.63 45.267 12.129 85.269-28.414 115.724-23.558 30.307 4.833 9.408 37.905 9.408 37.905" stroke="#1BC082" stroke-miterlimit="10"/><path d="M248.196 199.79a7.05 7.05 0 01-6.166 1.652 1.942 1.942 0 01-1.754-1.438 1.942 1.942 0 01.8-2.122 7.065 7.065 0 016.166-1.652 1.944 1.944 0 01.954 3.56zm59.062 56.748a7.047 7.047 0 01-6.165 1.652 1.947 1.947 0 01-1.696-2.627c.144-.381.403-.707.742-.933a7.059 7.059 0 016.165-1.652 1.947 1.947 0 011.696 2.628 1.95 1.95 0 01-.742.932zm147.114-42.428a7.059 7.059 0 01-6.166 1.653 1.948 1.948 0 01-1.754-1.438 1.945 1.945 0 01.8-2.122 7.049 7.049 0 016.166-1.652 1.943 1.943 0 01.954 3.559zm41.568 52.062a7.05 7.05 0 01-6.166 1.652 1.944 1.944 0 01-.954-3.56 7.062 7.062 0 016.166-1.652 1.942 1.942 0 011.754 1.438 1.945 1.945 0 01-.8 2.122zm117.389-23.112a7.069 7.069 0 01-6.166 1.652 1.942 1.942 0 01-1.754-1.438 1.945 1.945 0 01.8-2.122 7.047 7.047 0 016.166-1.652 1.944 1.944 0 01.954 3.56z" fill="#1BC082"/><g filter="url(#filter1_d_232_592)"><path d="M114.316 259.412s-8.467 29.032 37.82 36.439c46.816 7.492 89.638-29.562 132.067-18.191 41.542 11.133 32.388 22.32 68.766 32.07 36.378 9.749 84.487-45.561 129.757-33.429 45.271 12.133 1.72 55.024 29.661 62.512 27.941 7.488 80.351-33.029 80.351-33.029" stroke="#573CDA" stroke-linecap="round" stroke-linejoin="round"/><path d="M151.33 296.649a7.049 7.049 0 01-6.165 1.653 1.948 1.948 0 01-1.754-1.438 1.945 1.945 0 01.8-2.122 7.053 7.053 0 016.166-1.652 1.95 1.95 0 011.754 1.437 1.941 1.941 0 01-.801 2.122zm134.401-18.59a7.062 7.062 0 01-6.166 1.652 1.944 1.944 0 01-.954-3.56 7.05 7.05 0 016.166-1.652 1.942 1.942 0 011.754 1.438 1.941 1.941 0 01-.8 2.122zm71.775 32.911a7.059 7.059 0 01-6.166 1.652 1.947 1.947 0 01-1.695-2.628 1.95 1.95 0 01.742-.932 7.047 7.047 0 016.165-1.652 1.947 1.947 0 011.754 1.438 1.94 1.94 0 01-.8 2.122zm127.666-34.037a7.059 7.059 0 01-6.165 1.652 1.947 1.947 0 01-1.696-2.628 1.95 1.95 0 01.742-.932 7.047 7.047 0 016.165-1.652 1.947 1.947 0 011.754 1.438 1.94 1.94 0 01-.8 2.122zm31.291 62.986a7.047 7.047 0 01-6.165 1.652 1.947 1.947 0 01-1.696-2.627c.144-.381.403-.707.742-.933a7.059 7.059 0 016.166-1.652 1.947 1.947 0 011.695 2.628 1.95 1.95 0 01-.742.932z" fill="#573CDA"/></g><g filter="url(#filter2_d_232_592)"><path d="M128.594 245.136s25.502-10.501 68.673 1.067c43.17 11.568 96.376-31.515 135.399-17.027 46.477 17.256-37.602 92.306-1.227 102.053 36.376 9.747 73.728-34.811 118.995-22.682 45.268 12.13 12.474 44.267 40.413 51.754 27.939 7.486 69.591-22.278 69.591-22.278" stroke="#1BC082" stroke-linecap="round" stroke-linejoin="round"/><path d="M201.137 246.848a7.047 7.047 0 01-6.166 1.652 1.947 1.947 0 01-1.695-2.628 1.95 1.95 0 01.742-.932 7.047 7.047 0 016.165-1.652 1.947 1.947 0 011.696 2.628 1.95 1.95 0 01-.742.932z" fill="url(#paint1_linear_232_592)"/><path d="M334.368 229.427a7.05 7.05 0 01-6.166 1.652 1.942 1.942 0 01-1.754-1.438 1.941 1.941 0 01.8-2.122 7.047 7.047 0 016.166-1.652 1.944 1.944 0 01.954 3.56z" fill="url(#paint2_linear_232_592)"/><path d="M336.022 332.457a7.053 7.053 0 01-6.166 1.652 1.944 1.944 0 01-.954-3.56 7.062 7.062 0 016.166-1.652 1.942 1.942 0 011.754 1.438 1.945 1.945 0 01-.8 2.122z" fill="url(#paint3_linear_232_592)"/><path d="M452.907 309.206a7.05 7.05 0 01-6.166 1.652 1.942 1.942 0 01-1.754-1.437 1.945 1.945 0 01.8-2.123 7.065 7.065 0 016.166-1.652 1.944 1.944 0 01.954 3.56z" fill="url(#paint4_linear_232_592)"/><path d="M492.093 362.971c2.408-.646 4.058-2.296 3.686-3.686-.373-1.39-2.627-1.994-5.034-1.349-2.408.645-4.058 2.295-3.686 3.686.373 1.39 2.627 1.994 5.034 1.349z" fill="url(#paint5_linear_232_592)"/></g></g><defs><linearGradient id="paint0_linear_232_592" x1="471.886" y1="35.053" x2="457.211" y2="429.047" gradientUnits="userSpaceOnUse"><stop stop-color="#F6F4FF"/><stop offset="1" stop-color="#E5DDFA"/></linearGradient><linearGradient id="paint1_linear_232_592" x1="196.903" y1="243.377" x2="198.252" y2="248.411" gradientUnits="userSpaceOnUse"><stop stop-color="#1BC082"/><stop offset="1" stop-color="#23C89A"/></linearGradient><linearGradient id="paint2_linear_232_592" x1="330.133" y1="225.956" x2="331.482" y2="230.99" gradientUnits="userSpaceOnUse"><stop stop-color="#1BC082"/><stop offset="1" stop-color="#23C89A"/></linearGradient><linearGradient id="paint3_linear_232_592" x1="331.788" y1="328.986" x2="333.137" y2="334.02" gradientUnits="userSpaceOnUse"><stop stop-color="#1BC082"/><stop offset="1" stop-color="#23C89A"/></linearGradient><linearGradient id="paint4_linear_232_592" x1="448.672" y1="305.735" x2="450.021" y2="310.769" gradientUnits="userSpaceOnUse"><stop stop-color="#1BC082"/><stop offset="1" stop-color="#23C89A"/></linearGradient><linearGradient id="paint5_linear_232_592" x1="490.745" y1="357.936" x2="492.093" y2="362.971" gradientUnits="userSpaceOnUse"><stop stop-color="#1BC082"/><stop offset="1" stop-color="#23C89A"/></linearGradient><filter id="filter0_d_232_592" x="31.291" y="107.345" width="657.725" height="320.822" filterUnits="userSpaceOnUse" color-interpolation-filters="sRGB"><feFlood flood-opacity="0" result="BackgroundImageFix"/><feColorMatrix in="SourceAlpha" values="0 0 0 0 0 0 0 0 0 0 0 0 0 0 0 0 0 0 127 0" result="hardAlpha"/><feOffset dy="4"/><feGaussianBlur stdDeviation="2"/><feComposite in2="hardAlpha" operator="out"/><feColorMatrix values="0 0 0 0 0 0 0 0 0 0 0 0 0 0 0 0 0 0 0.15 0"/><feBlend in2="BackgroundImageFix" result="effect1_dropShadow_232_592"/><feBlend in="SourceGraphic" in2="effect1_dropShadow_232_592" result="shape"/></filter><filter id="filter1_d_232_592" x="109.209" y="258.911" width="488.029" height="90.811" filterUnits="userSpaceOnUse" color-interpolation-filters="sRGB"><feFlood flood-opacity="0" result="BackgroundImageFix"/><feColorMatrix in="SourceAlpha" values="0 0 0 0 0 0 0 0 0 0 0 0 0 0 0 0 0 0 127 0" result="hardAlpha"/><feOffset dy="4"/><feGaussianBlur stdDeviation="2"/><feComposite in2="hardAlpha" operator="out"/><feColorMatrix values="0 0 0 0 0 0 0 0 0 0 0 0 0 0 0 0 0 0 0.15 0"/><feBlend in2="BackgroundImageFix" result="effect1_dropShadow_232_592"/><feBlend in="SourceGraphic" in2="effect1_dropShadow_232_592" result="shape"/></filter><filter id="filter2_d_232_592" x="124.094" y="225.662" width="440.844" height="145.567" filterUnits="userSpaceOnUse" color-interpolation-filters="sRGB"><feFlood flood-opacity="0" result="BackgroundImageFix"/><feColorMatrix in="SourceAlpha" values="0 0 0 0 0 0 0 0 0 0 0 0 0 0 0 0 0 0 127 0" result="hardAlpha"/><feOffset dy="4"/><feGaussianBlur stdDeviation="2"/><feComposite in2="hardAlpha" operator="out"/><feColorMatrix values="0 0 0 0 0 0 0 0 0 0 0 0 0 0 0 0 0 0 0.15 0"/><feBlend in2="BackgroundImageFix" result="effect1_dropShadow_232_592"/><feBlend in="SourceGraphic" in2="effect1_dropShadow_232_592" result="shape"/></filter></defs></svg>