<svg width="592" height="595" fill="none" xmlns="http://www.w3.org/2000/svg"><path d="M504.951 549.585c-115.515 60.345-302.801 60.347-418.315.002-115.514-60.348-115.514-158.187 0-218.533 115.515-60.346 302.802-60.346 418.317-.002 115.514 60.346 115.514 158.187-.002 218.533z" fill="#fff"/><path d="M233.833 89.366l121.582 73.805a5.49 5.49 0 012.389 4.355l-4.456 202.712c-.035 1.583-1.161 2.201-2.515 1.379l-121.58-73.805a5.49 5.49 0 01-2.389-4.355l4.454-202.712c.035-1.583 1.161-2.2 2.515-1.379z" fill="#fff"/><path opacity=".5" d="M351.923 372.694a2.984 2.984 0 01-1.463-.463l-121.58-73.807a6.2 6.2 0 01-2.734-4.984l4.455-202.71a2.22 2.22 0 011.135-2.205 2.213 2.213 0 012.469.228l121.581 73.805a6.2 6.2 0 012.734 4.983l-4.456 202.713a2.423 2.423 0 01-1.134 2.203 1.975 1.975 0 01-1.007.237zM232.717 89.719a.583.583 0 00-.293.064 1.117 1.117 0 00-.389.978l-4.455 202.711a4.77 4.77 0 002.044 3.726l121.58 73.807a.828.828 0 001.426-.783l4.456-202.712a4.777 4.777 0 00-2.044-3.727L233.461 89.979a1.572 1.572 0 00-.744-.26z" fill="#C0BCD6"/><path d="M245.5 116.891l57.113 34.67a6.657 6.657 0 012.991 5.222c-.04 1.857-1.445 2.53-3.137 1.502l-57.115-34.67a6.656 6.656 0 01-2.99-5.222c.041-1.857 1.446-2.529 3.138-1.502z" fill="#37474F"/><path d="M245.057 137.063l97.36 59.096a6.656 6.656 0 012.99 5.222c-.04 1.857-1.445 2.529-3.138 1.502l-97.36-59.096a6.646 6.646 0 01-2.99-5.222c.04-1.857 1.445-2.529 3.138-1.502zm-.444 20.173l97.36 59.096a6.636 6.636 0 012.119 2.254c.52.907.819 1.924.872 2.968-.041 1.857-1.445 2.529-3.138 1.502l-97.36-59.096a6.658 6.658 0 01-2.991-5.222c.041-1.857 1.446-2.529 3.138-1.502zm-.443 20.173l97.36 59.096a6.665 6.665 0 012.991 5.222c-.041 1.857-1.446 2.529-3.138 1.502l-97.361-59.096a6.656 6.656 0 01-2.99-5.222c.041-1.857 1.446-2.529 3.138-1.502zm-.443 20.173l97.359 59.096a6.649 6.649 0 012.991 5.222c-.04 1.857-1.445 2.529-3.138 1.502l-97.36-59.096a6.658 6.658 0 01-2.991-5.222c.041-1.857 1.446-2.529 3.139-1.502zm-.444 20.173l97.36 59.096a6.655 6.655 0 012.991 5.222c-.041 1.857-1.446 2.53-3.138 1.502l-97.36-59.095a6.655 6.655 0 01-2.991-5.223c.041-1.856 1.446-2.529 3.138-1.502zm-.443 20.173l97.36 59.096a6.671 6.671 0 012.991 5.222c-.041 1.857-1.446 2.53-3.138 1.502l-97.361-59.096a6.662 6.662 0 01-2.99-5.222c.041-1.857 1.446-2.529 3.138-1.502zm-.443 20.174l97.359 59.095a6.655 6.655 0 012.991 5.222c-.04 1.857-1.445 2.53-3.138 1.502l-97.36-59.095a6.655 6.655 0 01-2.991-5.222c.041-1.857 1.446-2.53 3.139-1.502z" fill="#C0BCD6"/><path d="M351.655 372.689a2.964 2.964 0 01-1.463-.466l-121.581-73.804a6.197 6.197 0 01-2.733-4.984l4.454-202.712a2.216 2.216 0 013.603-1.976l121.583 73.806a6.198 6.198 0 012.732 4.983l-4.456 202.711a2.447 2.447 0 01-1.135 2.205 1.964 1.964 0 01-1.004.237zM232.448 89.713a.58.58 0 00-.293.063 1.109 1.109 0 00-.39.979l-4.453 202.712a4.773 4.773 0 002.043 3.727l121.581 73.804a.83.83 0 001.406-.223.826.826 0 00.019-.559l4.456-202.711a4.796 4.796 0 00-2.043-3.727L233.191 89.973a1.564 1.564 0 00-.743-.26z" fill="#C0BCD6"/><path d="M216.138 99.057L337.72 172.86a5.503 5.503 0 012.388 4.356l-4.456 202.711c-.034 1.584-1.16 2.201-2.514 1.379l-121.58-73.805a5.48 5.48 0 01-2.389-4.355l4.454-202.711c.035-1.584 1.161-2.201 2.515-1.38z" fill="#fff"/><path d="M334.229 382.385a2.964 2.964 0 01-1.463-.466l-121.581-73.804a6.197 6.197 0 01-2.732-4.983l4.453-202.712a2.22 2.22 0 011.135-2.205 2.214 2.214 0 012.469.229l121.582 73.805a6.197 6.197 0 012.732 4.983l-4.455 202.712a2.454 2.454 0 01-1.136 2.204 1.961 1.961 0 01-1.004.237zM215.022 99.41a.582.582 0 00-.293.063 1.109 1.109 0 00-.39.978l-4.453 202.712a4.783 4.783 0 002.043 3.727l121.581 73.805a.835.835 0 00.482.284.827.827 0 00.943-1.067l4.456-202.711a4.786 4.786 0 00-2.043-3.727L215.766 99.67a1.571 1.571 0 00-.744-.26z" fill="#C0BCD6"/><path d="M227.361 146.753l97.36 59.096a6.655 6.655 0 012.991 5.222c-.041 1.857-1.445 2.53-3.138 1.502l-97.36-59.095a6.655 6.655 0 01-2.991-5.222c.041-1.857 1.446-2.53 3.138-1.503zm-.443 20.174l97.36 59.096a6.662 6.662 0 012.991 5.222c-.041 1.857-1.446 2.529-3.138 1.502l-97.361-59.096a6.657 6.657 0 01-2.99-5.222c.041-1.857 1.446-2.529 3.138-1.502zm-.443 20.173l97.359 59.095a6.661 6.661 0 012.991 5.223c-.04 1.856-1.445 2.529-3.138 1.502l-97.36-59.096a6.655 6.655 0 01-2.991-5.222c.041-1.857 1.446-2.53 3.139-1.502zm-.444 20.173l97.36 59.095a6.655 6.655 0 012.991 5.222c-.041 1.857-1.446 2.53-3.138 1.502l-97.36-59.095a6.655 6.655 0 01-2.991-5.223c.041-1.856 1.446-2.529 3.138-1.501zm-.443 20.173l97.36 59.096a6.656 6.656 0 012.991 5.222c-.041 1.857-1.446 2.529-3.138 1.502L225.44 234.17a6.665 6.665 0 01-2.99-5.222c.041-1.857 1.446-2.529 3.138-1.502zm-.443 20.173l97.359 59.096a6.646 6.646 0 012.119 2.254c.52.907.819 1.924.872 2.968-.04 1.857-1.445 2.529-3.138 1.502l-97.36-59.096a6.658 6.658 0 01-2.991-5.222c.041-1.857 1.446-2.529 3.139-1.502zm-.444 20.173l97.36 59.096a6.658 6.658 0 012.991 5.222c-.041 1.857-1.446 2.529-3.138 1.502l-97.36-59.096a6.649 6.649 0 01-2.991-5.222c.041-1.857 1.446-2.529 3.138-1.502z" fill="#C0BCD6"/><path d="M196.085 110.05l121.582 73.805a5.5 5.5 0 012.389 4.355L315.6 390.922c-.035 1.584-1.161 2.201-2.515 1.379l-121.58-73.805a5.48 5.48 0 01-2.389-4.355l4.454-202.712c.035-1.583 1.161-2.2 2.515-1.379z" fill="#fff"/><path opacity=".5" d="M314.175 393.378a2.984 2.984 0 01-1.463-.463l-121.58-73.807a6.2 6.2 0 01-2.734-4.984l4.455-202.711a2.216 2.216 0 013.604-1.976l121.581 73.805a6.2 6.2 0 012.734 4.983l-4.456 202.713a2.42 2.42 0 01-1.134 2.203 1.975 1.975 0 01-1.007.237zM194.969 110.403a.576.576 0 00-.293.064 1.106 1.106 0 00-.389.978l-4.455 202.711a4.77 4.77 0 002.044 3.726l121.58 73.807a.828.828 0 001.426-.783l4.456-202.712a4.777 4.777 0 00-2.044-3.727l-121.581-73.804a1.576 1.576 0 00-.744-.26z" fill="#C0BCD6"/><path d="M207.752 137.575l57.113 34.67a6.657 6.657 0 012.991 5.222c-.04 1.857-1.445 2.53-3.138 1.502l-57.114-34.67a6.656 6.656 0 01-2.99-5.222c.041-1.857 1.446-2.529 3.138-1.502z" fill="#37474F"/><path d="M207.309 157.747l97.359 59.096a6.658 6.658 0 012.991 5.222c-.04 1.857-1.445 2.529-3.138 1.502l-97.36-59.096a6.658 6.658 0 01-2.991-5.222c.041-1.857 1.446-2.529 3.139-1.502zm-.444 20.173l97.36 59.096a6.636 6.636 0 012.119 2.254c.52.907.819 1.924.872 2.968-.041 1.857-1.446 2.529-3.138 1.502l-97.36-59.096a6.636 6.636 0 01-2.119-2.254 6.645 6.645 0 01-.872-2.968c.041-1.857 1.446-2.529 3.138-1.502zm-.443 20.173l97.36 59.096a6.671 6.671 0 012.991 5.222c-.041 1.857-1.446 2.53-3.138 1.502l-97.361-59.096a6.662 6.662 0 01-2.99-5.222c.041-1.856 1.446-2.529 3.138-1.502zm-.443 20.173l97.359 59.096a6.658 6.658 0 012.991 5.222c-.04 1.857-1.445 2.529-3.138 1.502l-97.36-59.096a6.666 6.666 0 01-2.991-5.222c.041-1.857 1.446-2.529 3.139-1.502zm-.444 20.174l97.36 59.095a6.655 6.655 0 012.991 5.222c-.041 1.857-1.446 2.53-3.138 1.502l-97.36-59.095a6.657 6.657 0 01-2.991-5.223c.041-1.856 1.446-2.529 3.138-1.501zm-.443 20.172l97.36 59.096a6.671 6.671 0 012.991 5.222c-.041 1.857-1.446 2.53-3.138 1.502l-97.361-59.096a6.662 6.662 0 01-2.99-5.222c.04-1.856 1.445-2.529 3.138-1.502zm-.443 20.174l97.359 59.096a6.65 6.65 0 012.991 5.222c-.04 1.856-1.445 2.529-3.138 1.502l-97.36-59.096a6.655 6.655 0 01-2.991-5.222c.041-1.857 1.446-2.53 3.139-1.502z" fill="#C0BCD6"/><path d="M314.423 393.385a2.979 2.979 0 01-1.464-.467l-121.581-73.804a6.208 6.208 0 01-2.732-4.983l4.453-202.712a2.22 2.22 0 011.135-2.205 2.214 2.214 0 012.469.229l121.582 73.805a6.197 6.197 0 012.733 4.984l-4.456 202.711a2.453 2.453 0 01-1.135 2.205 1.987 1.987 0 01-1.004.237zM195.215 110.409a.57.57 0 00-.292.063 1.108 1.108 0 00-.39.978l-4.453 202.712a4.781 4.781 0 002.042 3.727l121.582 73.805a.829.829 0 001.405-.223.829.829 0 00.019-.56l4.456-202.711a4.773 4.773 0 00-2.043-3.727l-121.582-73.804a1.566 1.566 0 00-.744-.26z" fill="#C0BCD6"/><path d="M178.391 119.741l121.583 73.805a5.49 5.49 0 012.388 4.355l-4.456 202.712c-.035 1.583-1.16 2.2-2.514 1.379l-121.581-73.806a5.49 5.49 0 01-2.388-4.355l4.454-202.711c.035-1.584 1.161-2.201 2.514-1.379z" fill="#fff"/><path d="M296.483 403.07a2.975 2.975 0 01-1.463-.467l-121.581-73.804a6.188 6.188 0 01-2.732-4.983l4.453-202.712a2.211 2.211 0 011.134-2.205 2.22 2.22 0 012.47.229l121.582 73.805a6.197 6.197 0 012.732 4.984l-4.456 202.711a2.452 2.452 0 01-1.135 2.205 1.984 1.984 0 01-1.004.237zM177.276 120.094a.571.571 0 00-.293.063 1.106 1.106 0 00-.39.978l-4.453 202.712c.03.737.23 1.457.585 2.103a4.764 4.764 0 001.458 1.624l121.581 73.805a.835.835 0 00.482.284.83.83 0 00.943-1.067l4.456-202.711a4.786 4.786 0 00-2.043-3.727l-121.583-73.804a1.558 1.558 0 00-.743-.26z" fill="#C0BCD6"/><path d="M190.545 148.711l57.113 34.67a6.658 6.658 0 012.991 5.222c-.04 1.857-1.445 2.529-3.138 1.502l-57.114-34.67a6.656 6.656 0 01-2.99-5.222c.041-1.857 1.446-2.529 3.138-1.502zm-.547 18.806l57.113 34.67a6.655 6.655 0 012.991 5.222c-.04 1.857-1.445 2.529-3.137 1.502l-57.115-34.67a6.657 6.657 0 01-2.99-5.222c.041-1.857 1.446-2.53 3.138-1.502z" fill="#23C89A"/><path d="M189.658 189.056l97.36 59.096a6.662 6.662 0 012.991 5.222c-.041 1.856-1.446 2.529-3.138 1.502l-97.36-59.096a6.655 6.655 0 01-2.991-5.222c.041-1.857 1.446-2.53 3.138-1.502z" fill="url(#paint0_linear_232_991)"/><path d="M189.215 209.229l97.36 59.096a6.656 6.656 0 012.991 5.222c-.041 1.857-1.446 2.529-3.138 1.502l-97.361-59.096a6.656 6.656 0 01-2.99-5.222c.041-1.857 1.446-2.529 3.138-1.502z" fill="url(#paint1_linear_232_991)"/><path d="M188.772 229.402l97.359 59.096a6.636 6.636 0 012.119 2.254c.52.907.819 1.924.872 2.968-.04 1.857-1.445 2.529-3.138 1.502l-97.36-59.096a6.658 6.658 0 01-2.991-5.222c.041-1.857 1.446-2.529 3.139-1.502z" fill="url(#paint2_linear_232_991)"/><path d="M188.328 249.575l97.36 59.096a6.658 6.658 0 012.991 5.222c-.041 1.857-1.446 2.529-3.138 1.502l-97.361-59.096a6.662 6.662 0 01-2.99-5.222c.041-1.857 1.446-2.529 3.138-1.502z" fill="url(#paint3_linear_232_991)"/><path d="M187.885 269.749l97.36 59.095a6.671 6.671 0 012.991 5.222c-.041 1.857-1.446 2.53-3.138 1.503l-97.361-59.096a6.657 6.657 0 01-2.99-5.222c.04-1.857 1.445-2.53 3.138-1.502z" fill="url(#paint4_linear_232_991)"/><path d="M187.442 289.921l97.359 59.096a6.655 6.655 0 012.991 5.222c-.041 1.857-1.445 2.53-3.138 1.502l-97.36-59.095a6.655 6.655 0 01-2.991-5.222c.041-1.857 1.446-2.53 3.139-1.503z" fill="url(#paint5_linear_232_991)"/><path opacity=".1" d="M537.281 455.095l-129.594 87.251c-8.161 5.493-25.661 6.619-34.913 2.805-63.806-25.995-252.015-103.671-252.015-103.671-9.296-3.807-10.067-11.262-1.884-16.761l130.962-88.204 287.444 118.58z" fill="#000"/><path d="M508.804 450.038c-1.223 6.643-116.587 78.534-116.587 78.534-7.403 4.988-23.268 5.962-31.651 2.55-57.849-23.606-227.052-93.411-227.052-93.411-8.351-3.381-11.805-14.028-4.387-19.019l119.987-76.748s271.456 45.338 259.69 108.094z" fill="#2A206A"/><path d="M509.222 444.794l-117.484 79.094c-7.404 4.985-23.265 5.997-31.651 2.543-57.846-23.568-228.468-93.983-228.468-93.983-8.401-3.45-9.116-10.209-1.701-15.195l118.72-79.956 260.584 107.497z" fill="#573CDA"/><path d="M525.749 282.291a15.165 15.165 0 00-.717-2.549c-.129-.236-.198-.483-.309-.743a20.003 20.003 0 00-1.177-2.481.75.75 0 00-.191-.409c-.393-.733-.881-1.403-1.303-2.038-.295-.342-.489-.631-.754-.936-.493-.512-.926-1.05-1.417-1.502a2.255 2.255 0 00-.405-.447 11.816 11.816 0 00-2.042-1.653 5.615 5.615 0 00-.563-.368 12.934 12.934 0 00-2.382-1.216l-229.98-93.708a15.296 15.296 0 00-2.66-.757c-.339-.025-.546-.099-.871-.107-.421-.054-.804-.057-1.187-.092a9.86 9.86 0 00-1.072.07l-.771.078a9.936 9.936 0 00-1.543.391l6.059-2.053a6.657 6.657 0 011.04-.301l1.789-.182a5.34 5.34 0 01.536-.036c.338.004.742.061 1.157.077.192.025.385.038.579.039.123.034.241.08.354.137a9.78 9.78 0 012.644.703l230 93.707c.841.349 1.641.775 2.388 1.271.138.103.333.195.493.297.728.523 1.42 1.088 2.072 1.691.163.14.27.227.371.334.26.281.578.504.841.827.22.259.425.529.612.81.291.253.535.549.722.876.116.129.221.267.312.412.418.57.771 1.179 1.052 1.817.05.057.105.11.164.157l.004.039c.391.621.712 1.278.957 1.962.126.219.152.468.265.69.061.186.141.394.203.582.119.24.209.49.267.749.212.616.355 1.203.527 1.825.012.117.062.229.07.302l.012.116c.176.88.301 1.768.374 2.662.006.053-.065.163-.063.181a18.882 18.882 0 01-.093 3.444l-23.31 163.079-4.913 3.313 22.168-164.377c.162-1.151.204-2.312.124-3.466-.1-.981-.199-1.96-.361-2.972a.498.498 0 01-.072-.245z" fill="#2A206A"/><path d="M284.51 174.241c-7.462-3.082-14.591 1.386-15.758 9.93L248.64 337.297l255.984 110.622 21.435-158.946c1.171-8.563-4.03-17.967-11.57-21.024L284.51 174.241z" fill="#3D2B93"/><path d="M517.984 294.203l-243.039-97.679-17.55 131.599 240.779 105.321 19.81-139.241z" fill="#fff"/><path d="M172.642 405.896l231.922 94.481 69.364-46.787-231.84-94.452-69.446 46.758zm176.233 65.941l-108.042-43.936 9.36-6.307 107.972 43.979-9.29 6.264zm-72.719-67.751l9.557 3.932-9.32 6.27-9.613-3.855 9.376-6.347zm-32.584-3.146l-9.567-3.874 9.371-6.354 9.556 3.921-9.36 6.307zm131.232 53.449l-9.584-3.894 9.394-6.293 9.55 3.876-9.36 6.311zm-33.04-23.567l9.565 3.878-9.32 6.355-9.573-3.93 9.328-6.303zm65.749 36.923l-9.51-3.88 9.348-6.309 9.551 3.879-9.389 6.31zm-107.879-43.949l9.364-6.329 9.514 3.923-9.36 6.289-9.518-3.883zm-1.603-10.78l9.597 3.935-9.363 6.268-9.565-3.874 9.331-6.329zm131.406 63.637l-9.548-3.898 9.398-6.293 9.531 3.938-9.381 6.253zm-196.815-80.127l-9.538-3.916 9.376-6.333 9.528 3.938-9.366 6.311zm98.276 29.869l9.524 3.882-9.332 6.308-9.548-3.919 9.356-6.271zm-65.458-16.538l-9.548-3.905 9.376-6.29 9.529 3.92-9.357 6.275zm98.262 29.888l9.505 3.92-9.353 6.292-9.554-3.936 9.402-6.276zm32.947 23.538l-9.565-3.878 9.403-6.272 9.543 3.88-9.381 6.27zm-15.002 21.968l-9.533-3.885 9.306-6.323 9.581 3.933-9.354 6.275zm-151.044-75.576l-9.59-3.932 9.371-6.272 9.565 3.934-9.346 6.27zm98.178 29.919l9.614 3.908-9.37 6.276-9.534-3.881 9.29-6.303zm-39.652-44.184l9.56 3.879-9.29 6.257-9.571-3.913 9.301-6.223zm-32.552-3.227l-9.531-3.941 9.295-6.258 9.568 3.895-9.332 6.304zm48.968 37.942l-9.334 6.282-9.611-3.869 9.389-6.275 9.556 3.862zm7.107-15.129l9.298-6.258 9.611 3.908-9.371 6.273-9.538-3.923zm-49.475-2.138l9.544 3.88-9.309 6.308-9.596-3.917 9.361-6.271zm-45.531 5.586l-9.578-3.929 9.363-6.272 9.541 3.881-9.326 6.32zm137.127 3.659l9.571 3.913-9.378 6.273-9.53-3.92 9.337-6.266zm39.829 54.371l-9.498-3.845 9.281-6.342 9.561 3.96-9.344 6.227zm-32.779-13.331l-9.595-3.932 9.358-6.271 9.574 3.937-9.337 6.266zm25.977-17.471l-9.557-3.939 9.313-6.263 9.525 3.882-9.281 6.32zm32.794 13.351l-9.528-3.924 9.281-6.26 9.607 3.874-9.36 6.31zm-109.583-54.764l9.568 3.898-9.309 6.284-9.566-3.874 9.307-6.308zm72.689 67.835l-9.577-3.972 9.328-6.268 9.575 3.877-9.326 6.363zm25.972-17.488l-9.581-3.933 9.333-6.311 9.571 3.916-9.323 6.328zm-91.793-19.428l9.604 3.867-9.379 6.273-9.594-3.928 9.369-6.212zm-39.405-34.084l-9.6-3.857 9.343-6.309 9.558 3.9-9.301 6.266zm65.347 16.535l9.574 3.973-9.301 6.223-9.612-3.93 9.339-6.266zm-91.346.959l-9.569-3.895 9.289-6.268 9.616 3.894-9.336 6.269zm32.576 3.203l9.544 3.877-9.315 6.267-9.591-3.872 9.362-6.272zm-45.525 5.548l-9.57-3.92 9.279-6.256 9.634 3.906-9.343 6.27zm111.131 21.188l9.539 3.856-9.285 6.282-9.548-3.873 9.294-6.265zm25.989-17.518l9.567 3.878-9.336 6.304-9.582-3.89 9.351-6.292zm26.869 63.173l-9.549-3.958 9.325-6.267 9.595 3.892-9.371 6.333zm-196.773-80.217l-9.607-3.87 9.297-6.261 9.616 3.872-9.306 6.259zm12.908-8.764l-9.525-3.878 9.322-6.31 9.556 3.917-9.353 6.271zm196.865 80.182l-9.612-3.894 9.358-6.268 9.548 3.898-9.294 6.264zm-170.848-97.636l-9.573-3.877 9.332-6.307 9.534 3.881-9.293 6.303zm125.12 93.077l-9.697-3.96 9.379-6.274 9.613 3.909-9.295 6.325zm71.698-12.932l-9.571-3.856 9.297-6.283 9.572 3.916-9.298 6.223zm-220.83-75.874l-9.528-3.921 9.378-6.27 9.525 3.875-9.375 6.316zm131.091 43.314l9.506 3.845-9.356 6.264-9.529-3.84 9.379-6.269zm32.975 23.474l-9.552-3.879 9.395-6.271 9.511 3.883-9.354 6.267zM254.491 405.4l-9.538-3.923 9.335-6.283 9.577 3.894-9.374 6.312zm32.643 3.154l9.527 3.882-9.37 6.35-9.529-3.917 9.372-6.315zM418.48 472.2l-9.485-3.865 9.36-6.31 9.488 3.903-9.363 6.272zm-107.905-43.929l9.386-6.351 9.474 3.943-9.345 6.214-9.515-3.806zm120.889 35.154l-9.462-3.889 9.291-6.243 9.528 3.86-9.357 6.272zm-222.721-62.643l-9.504-3.926 9.291-6.222 9.548 3.879-9.335 6.269zm196.821 80.166l-9.577-3.895 9.363-6.268 9.528 3.899-9.314 6.264zm-131.498-63.61l9.621 3.911-9.338 6.273-9.566-3.881 9.283-6.303zm-6.578-20.694l-9.569-3.92 9.382-6.231 9.505 3.866-9.318 6.285zm32.658 3.174l9.457 3.889-9.258 6.314-9.558-3.893 9.359-6.31zm59.629 76.499l-9.535-3.86 9.28-6.281 9.545 3.919-9.29 6.222zM195.8 409.515l-9.599-3.857 9.359-6.31 9.461 3.91-9.221 6.257zm176.981 58.063l-9.614-3.87 9.348-6.312 9.555 3.917-9.289 6.265zm-131.267-53.446l-9.524-3.878 9.363-6.269 9.523 3.858-9.362 6.289zm157.192 35.962l-9.551-3.879 9.382-6.274 9.524 3.882-9.355 6.271zm-6.091 39.608l-9.572-3.916 9.296-6.304 9.502 3.906-9.226 6.314zm-26.89-63.146l9.509 3.884-9.314 6.246-9.524-3.865 9.329-6.265zm-137.214-3.703l-9.48-3.865 9.312-6.266 9.573 3.855-9.405 6.276zm95.054-3.379l9.352-6.306 9.536 3.923-9.308 6.302-9.58-3.919zm-7.108 15.108l-9.303 6.279-9.54-3.915 9.298-6.262 9.545 3.898zm-81.732-51.292l-9.589-3.932 9.345-6.21 9.523 3.878-9.279 6.264zm105.012 60.717l9.509 3.944-9.283 6.303-9.582-3.937 9.356-6.31zm-14.111-45.602l9.547 3.939-6.452 4.303-9.579-3.912 6.484-4.33zm69.186 28.195l9.673 3.864-6.487 4.369-9.619-3.907 6.433-4.326zM260.01 371.669l9.537 3.902-6.439 4.365-9.608-3.877 6.51-4.39zm40.089 16.318l9.599 3.913-6.593 4.356-9.459-3.91 6.453-4.359zm-14.565-5.91l9.61 3.909-6.53 4.374-9.579-3.919 6.499-4.364zm149.431 60.827l9.533 3.98-6.455 4.324-9.569-3.895 6.491-4.409zm14.55 5.992l9.605 3.853-6.463 4.402-9.54-3.916 6.398-4.339zm-36.998-8.131l-9.495-3.846 6.442-4.4 9.502 3.887-6.449 4.359zm-164.039-66.792L239 370.087l6.529-4.373 9.464 3.926-6.515 4.333zm91.766 30.357l9.508 3.88-6.487 4.373-9.536-3.881 6.515-4.372z" fill="#EBFAFF"/><path d="M320.579 408.158l-9.309 6.283-9.566-3.875 9.311-6.265 9.564 3.857zm-76.574-31.131l-9.28 6.263-9.587-3.933 9.343-6.209 9.524 3.879zm43.769 17.801l-9.3 6.265-9.601-3.855 9.343-6.309 9.558 3.899zm-25.962 17.491l-9.336 6.269-9.57-3.895 9.289-6.267 9.617 3.893zm-6.817-42.679l-6.515 4.333-9.479-3.886 6.529-4.372 9.465 3.925zm14.553 5.932l-6.441 4.364-9.607-3.876 6.509-4.391 9.539 3.903zm-14.588 5.871l-9.293 6.304-9.572-3.876 9.332-6.308 9.533 3.88zm-23.928 4.259l-9.377 6.316-9.527-3.921 9.377-6.271 9.527 3.876zm34.879.178l-9.332 6.302-9.531-3.94 9.295-6.258 9.568 3.896zm29.234.107l-6.531 4.372-9.578-3.919 6.499-4.362 9.61 3.909zm-53.158 4.227l-9.365 6.311-9.538-3.915 9.376-6.333 9.527 3.937zm-23.908 4.3l-9.336 6.268-9.504-3.926 9.291-6.222 9.549 3.88zm58.727-4.155l-9.319 6.284-9.568-3.92 9.383-6.229 9.504 3.865zm-23.873 4.274l-9.359 6.307-9.568-3.875 9.37-6.353 9.557 3.921zm56.765-2.734l-6.593 4.356-9.459-3.909 6.453-4.36 9.599 3.913zm-80.693 7.031l-9.353 6.272-9.525-3.879 9.321-6.31 9.557 3.917zm-23.982 4.327l-9.222 6.257-9.599-3.855 9.359-6.311 9.462 3.909zm58.843-4.169l-9.373 6.312-9.539-3.923 9.336-6.283 9.576 3.894zm-23.916 4.318l-9.347 6.269-9.59-3.932 9.371-6.272 9.566 3.935zm58.738-4.117l-9.289 6.258-9.572-3.914 9.301-6.222 9.56 3.878zm-23.89 4.292l-9.357 6.276-9.549-3.905 9.377-6.291 9.529 3.92zm-23.921 4.262l-9.363 6.289-9.523-3.878 9.363-6.269 9.523 3.858zm84.296-5.499l-6.453 4.304-9.578-3.912 6.484-4.332 9.547 3.94zm-25.569 1.364l-9.258 6.312-9.558-3.892 9.359-6.31 9.457 3.89zm-23.891 4.31l-9.319 6.271-9.615-3.856 9.376-6.347 9.558 3.932zm-47.796 8.56l-9.406 6.276-9.48-3.866 9.312-6.266 9.574 3.856zm111.836-8.367l-6.488 4.372-9.537-3.88 6.515-4.373 9.51 3.881zm-53.09 4.224l-9.371 6.352-9.529-3.919 9.373-6.314 9.527 3.881zm-23.941 4.302l-9.308 6.309-9.596-3.917 9.359-6.271 9.545 3.879zm58.839-4.091l-9.37 6.274-9.54-3.923 9.298-6.259 9.612 3.908zm-82.691 8.423l-9.342 6.271-9.57-3.92 9.278-6.257 9.634 3.906zm34.816.181l-9.337 6.272-9.566-3.88 9.283-6.303 9.62 3.911zm58.768-4.16l-9.308 6.302-9.58-3.919 9.351-6.306 9.537 3.923zm-23.941 4.3l-9.361 6.289-9.518-3.884 9.365-6.327 9.514 3.922zm-23.917 4.277l-9.316 6.269-9.591-3.873 9.363-6.271 9.544 3.875zm58.799-4.064l-9.301 6.223-9.61-3.93 9.339-6.267 9.572 3.974zm-23.961 4.261l-9.345 6.213-9.514-3.806 9.387-6.351 9.472 3.944zm-23.89 4.26l-9.334 6.283-9.609-3.869 9.388-6.276 9.555 3.862zm58.8-4.108l-9.378 6.274-9.529-3.92 9.336-6.267 9.571 3.913zm-23.921 4.261l-9.332 6.308-9.548-3.918 9.354-6.272 9.526 3.882zm-23.967 4.305l-9.303 6.279-9.541-3.916 9.297-6.26 9.547 3.897zm58.779-4.141l-9.314 6.244-9.524-3.863 9.329-6.265 9.509 3.884zm29.252.023l-6.488 4.37-9.62-3.907 6.433-4.327 9.675 3.864zm-53.156 4.237l-9.321 6.355-9.571-3.93 9.326-6.304 9.566 3.879zm-23.848 4.344l-9.379 6.272-9.594-3.926 9.368-6.214 9.605 3.868zm58.731-4.158l-9.336 6.305-9.581-3.892 9.349-6.291 9.568 3.878zm-23.961 4.289l-9.356 6.265-9.531-3.838 9.381-6.272 9.506 3.845zm56.713-2.77l-6.45 4.359-9.496-3.846 6.444-4.4 9.502 3.887zm-80.571 7.096l-9.372 6.275-9.533-3.88 9.291-6.303 9.614 3.908zm58.686-4.15l-9.281 6.319-9.559-3.937 9.315-6.265 9.525 3.883zm-23.873 4.313l-9.353 6.292-9.555-3.936 9.404-6.275 9.504 3.919zm-23.963 4.286l-9.283 6.302-9.58-3.936 9.355-6.309 9.508 3.943zm58.817-4.127l-9.356 6.27-9.55-3.88 9.382-6.273 9.524 3.883zm-23.898 4.254l-9.358 6.31-9.586-3.893 9.394-6.292 9.55 3.875zm-23.968 4.306l-9.286 6.281-9.548-3.873 9.295-6.265 9.539 3.857zm84.303-5.5l-6.455 4.324-9.57-3.895 6.492-4.41 9.533 3.981zm-25.502 1.395l-9.324 6.327-9.581-3.933 9.333-6.31 9.572 3.916zm-23.92 4.259l-9.353 6.269-9.553-3.88 9.394-6.271 9.512 3.882zm34.877.175l-9.359 6.311-9.529-3.924 9.281-6.261 9.607 3.874zm29.166.036l-6.463 4.402-9.541-3.916 6.399-4.339 9.605 3.853zm-53.09 4.264l-9.38 6.271-9.565-3.879 9.402-6.271 9.543 3.879zm-23.959 4.3l-9.289 6.265-9.614-3.87 9.347-6.313 9.556 3.918zm58.75-4.16l-9.359 6.273-9.461-3.889 9.291-6.244 9.529 3.86zm-82.657 8.42l-9.289 6.265-108.042-43.937 9.359-6.307 107.972 43.979zm58.737-4.137l-9.39 6.31-9.509-3.881 9.349-6.309 9.55 3.88zm-23.875 4.295l-9.326 6.363-9.577-3.971 9.327-6.27 9.576 3.878zm58.758-4.063l-9.297 6.223-9.572-3.856 9.297-6.283 9.572 3.916zm-82.719 8.426l-9.291 6.223-9.535-3.861 9.282-6.281 9.544 3.919zm58.777-4.166l-9.362 6.273-9.485-3.865 9.359-6.311 9.488 3.903zm-23.896 4.319l-9.343 6.228-9.498-3.846 9.281-6.341 9.56 3.959zm-23.863 4.252l-9.295 6.325-9.696-3.961 9.378-6.272 9.613 3.908zm58.736-4.098l-9.38 6.253-9.549-3.899 9.398-6.293 9.531 3.939zm-23.939 4.283l-9.315 6.264-9.578-3.895 9.364-6.268 9.529 3.899zm-23.879 4.293l-9.355 6.274-9.531-3.884 9.304-6.323 9.582 3.933zm34.808.142l-9.294 6.264-9.611-3.894 9.357-6.269 9.548 3.899zm-23.968 4.268l-9.225 6.315-9.572-3.916 9.297-6.304 9.5 3.905zm11.044 4.462l-9.37 6.333-9.549-3.958 9.324-6.267 9.595 3.892zM307.628 416.95l-9.363 6.27-9.566-3.875 9.332-6.328 9.597 3.933zm63.531 39.927l-9.336 6.265-9.595-3.93 9.357-6.272 9.574 3.937zm-144.185-44.752l-9.327 6.319-9.577-3.93 9.363-6.271 9.541 3.882zm-10.926-4.418l-9.305 6.26-9.607-3.871 9.297-6.261 9.615 3.872z" fill="#3D2B93"/><path d="M297.201 461.207c3.303 1.333 3.623 4.056.619 6.07l-19.53 13.109a13.634 13.634 0 01-5.595 1.871c-1.991.213-4-.009-5.865-.647l-29.598-12.061c-3.256-1.376-3.562-4.122-.624-6.129l19.497-13.124a13.943 13.943 0 015.622-1.824c1.994-.203 4.005.02 5.875.653l29.599 12.082z" fill="#72B5D3"/><path d="M297.292 462.09c3.306 1.371 3.629 4.112.617 6.053l-19.526 13.147a13.436 13.436 0 01-5.596 1.885 13.454 13.454 0 01-5.866-.678l-29.598-12.064c-3.252-1.339-3.562-4.119-.624-6.127l19.499-13.105a13.657 13.657 0 015.619-1.854 13.664 13.664 0 015.878.683l29.597 12.06z" fill="#2A206A"/><path d="M469.721 289.476a1.841 1.841 0 10-1.544 3.342l30.821 14.231a1.838 1.838 0 101.542-3.338l-30.819-14.235z" fill="url(#paint6_linear_232_991)"/><path d="M468.796 299.961a1.84 1.84 0 00-1.542 3.34l30.815 14.232a1.84 1.84 0 101.544-3.343l-30.817-14.229z" fill="url(#paint7_linear_232_991)"/><path d="M467.877 310.445a1.84 1.84 0 10-1.544 3.343l30.815 14.233a1.84 1.84 0 101.543-3.341l-30.814-14.235z" fill="url(#paint8_linear_232_991)"/><path opacity=".1" d="M454.678 545.034l11.743 4.824c.364.148.767.205 1.166.164a2.45 2.45 0 001.11-.396l10.62-7.109c.326-.218.585-.51.751-.847.167-.337.235-.707.199-1.072a1.975 1.975 0 00-.407-1.012 2.194 2.194 0 00-.903-.681l-11.745-4.824a2.46 2.46 0 00-1.167-.165c-.399.04-.782.176-1.11.393l-10.619 7.113c-.326.218-.585.51-.752.847a1.961 1.961 0 00.209 2.084c.231.297.543.532.905.681z" fill="#000"/><path opacity=".033" d="M405.111 40.434c.506 4.974 2.603 9.673 6.026 13.504 3.424 3.83 8.019 6.62 13.206 8.015a29.691 29.691 0 0015.936-.174c5.202-1.51 9.829-4.4 13.293-8.306 3.465-3.905 5.612-8.651 6.171-13.637.558-4.985-.497-9.987-3.032-14.372-2.536-4.385-6.438-7.957-11.213-10.263-4.775-2.307-10.208-3.245-15.613-2.695-7.248.737-13.93 4.094-18.576 9.331-4.645 5.238-6.875 11.927-6.198 18.597z" fill="#DEF4FF"/><path opacity=".067" d="M410.196 40.236c.412 4.054 2.121 7.885 4.912 11.007 2.79 3.123 6.536 5.397 10.764 6.535a24.202 24.202 0 0012.99-.142c4.241-1.23 8.012-3.585 10.836-6.769 2.824-3.183 4.575-7.052 5.031-11.116.456-4.064-.404-8.14-2.47-11.715-2.067-3.575-5.247-6.487-9.139-8.367-3.893-1.88-8.322-2.645-12.728-2.198-5.908.601-11.355 3.337-15.142 7.606-3.787 4.269-5.605 9.722-5.054 15.159z" fill="#DEF4FF"/><path opacity=".1" d="M415.279 40.038c.319 3.136 1.64 6.097 3.798 8.512 2.157 2.414 5.054 4.172 8.323 5.052 3.269.88 6.765.842 10.044-.109 3.279-.95 6.195-2.772 8.379-5.234 2.184-2.461 3.538-5.452 3.89-8.594a14.757 14.757 0 00-1.909-9.06c-1.598-2.763-4.057-5.015-7.066-6.469-3.009-1.454-6.434-2.046-9.841-1.7-4.569.464-8.781 2.58-11.71 5.88-2.928 3.302-4.334 7.518-3.908 11.723z" fill="#DEF4FF"/><path opacity=".133" d="M420.364 39.842c.225 2.215 1.159 4.309 2.684 6.015 1.524 1.706 3.571 2.949 5.882 3.57 2.31.623 4.78.596 7.098-.076 2.317-.672 4.378-1.959 5.921-3.698 1.544-1.74 2.501-3.853 2.751-6.074a10.43 10.43 0 00-1.349-6.402c-1.129-1.953-2.866-3.545-4.993-4.573-2.126-1.028-4.546-1.446-6.954-1.202a13.162 13.162 0 00-4.573 1.325 12.36 12.36 0 00-3.704 2.83 11.252 11.252 0 00-2.271 3.903 10.492 10.492 0 00-.492 4.382z" fill="#DEF4FF"/><path opacity=".167" d="M425.447 39.644a6.222 6.222 0 001.57 3.519c.891.998 2.089 1.725 3.44 2.09a7.737 7.737 0 004.152-.045 7.374 7.374 0 003.465-2.162 6.45 6.45 0 001.61-3.552 6.109 6.109 0 00-.787-3.746c-.66-1.143-1.676-2.074-2.92-2.676a7.604 7.604 0 00-4.067-.705 7.698 7.698 0 00-2.677.774 7.233 7.233 0 00-2.168 1.655 6.592 6.592 0 00-1.33 2.284 6.15 6.15 0 00-.288 2.564z" fill="#DEF4FF"/><path opacity=".2" d="M430.53 39.447c.038.376.197.732.455 1.022.259.29.607.502.999.608.393.107.812.103 1.206-.01a2.14 2.14 0 001.008-.628c.263-.295.427-.654.47-1.031a1.774 1.774 0 00-.226-1.089 1.956 1.956 0 00-.846-.78 2.235 2.235 0 00-1.961.016 2.116 2.116 0 00-.632.481 1.912 1.912 0 00-.388.664c-.081.242-.11.496-.085.746z" fill="#DEF4FF"/><path d="M386.015 296.818l-26.644 49.432-35.641-14.749 26.647-49.433 35.638 14.75zm-53.114-6.575l-20.399 37.871-36.147-13.955 20.394-37.871 36.152 13.955z" fill="#573CDA"/><path d="M480.419 329.383l-28.958 53.79-36.195-13.724 28.964-53.787 36.189 13.721z" fill="#3D2B93"/><path d="M425.603 324.561l-20.832 38.682-36.289-13.69 20.832-38.677 36.289 13.685z" fill="#573CDA"/><path d="M375.12 334.553l.316-5.982 54.764-2.876-.315 5.983-54.765 2.875zm51.237-10.944l.316-5.982 46.89 10.49-.317 5.98-46.889-10.488zm-61.543-13.866l.315-5.982 10.306 24.81-.316 5.982-10.305-24.81z" fill="#23C89A"/><path d="M288.393 313.766l.318-5.981 76.421-4.024-.315 5.982-76.424 4.023z" fill="#23C89A"/><path d="M426.358 323.609l46.889 10.488-35.366 15.852-3.883-8.892-66.454 3.857-9.78-23.461-65.544 1.714-3.829-9.401 76.423-4.023 10.305 24.81 54.764-2.875-3.525-8.069z" fill="#1BC082"/><defs><linearGradient id="paint0_linear_232_991" x1="238.974" y1="189.691" x2="237.555" y2="254.24" gradientUnits="userSpaceOnUse"><stop stop-color="#C0BCD6"/><stop offset="1" stop-color="#D5D5D5"/></linearGradient><linearGradient id="paint1_linear_232_991" x1="238.531" y1="209.864" x2="237.112" y2="274.414" gradientUnits="userSpaceOnUse"><stop stop-color="#C0BCD6"/><stop offset="1" stop-color="#D5D5D5"/></linearGradient><linearGradient id="paint2_linear_232_991" x1="238.087" y1="230.037" x2="236.668" y2="294.586" gradientUnits="userSpaceOnUse"><stop stop-color="#C0BCD6"/><stop offset="1" stop-color="#D5D5D5"/></linearGradient><linearGradient id="paint3_linear_232_991" x1="237.644" y1="250.211" x2="236.225" y2="314.76" gradientUnits="userSpaceOnUse"><stop stop-color="#C0BCD6"/><stop offset="1" stop-color="#D5D5D5"/></linearGradient><linearGradient id="paint4_linear_232_991" x1="237.201" y1="270.384" x2="235.782" y2="334.933" gradientUnits="userSpaceOnUse"><stop stop-color="#C0BCD6"/><stop offset="1" stop-color="#D5D5D5"/></linearGradient><linearGradient id="paint5_linear_232_991" x1="236.757" y1="290.557" x2="235.338" y2="355.106" gradientUnits="userSpaceOnUse"><stop stop-color="#C0BCD6"/><stop offset="1" stop-color="#D5D5D5"/></linearGradient><linearGradient id="paint6_linear_232_991" x1="483.187" y1="286.768" x2="485.528" y2="309.756" gradientUnits="userSpaceOnUse"><stop stop-color="#C0BCD6"/><stop offset="1" stop-color="#D5D5D5"/></linearGradient><linearGradient id="paint7_linear_232_991" x1="482.263" y1="297.254" x2="484.604" y2="320.242" gradientUnits="userSpaceOnUse"><stop stop-color="#C0BCD6"/><stop offset="1" stop-color="#D5D5D5"/></linearGradient><linearGradient id="paint8_linear_232_991" x1="481.341" y1="307.737" x2="483.683" y2="330.729" gradientUnits="userSpaceOnUse"><stop stop-color="#C0BCD6"/><stop offset="1" stop-color="#D5D5D5"/></linearGradient></defs></svg>