<svg width="591" height="525" fill="none" xmlns="http://www.w3.org/2000/svg"><g clip-path="url(#clip0_232_1212)"><path d="M504.449 479.795c-115.4 60.273-302.501 60.274-417.899.002-115.4-60.274-115.4-157.995 0-218.268 115.4-60.273 302.501-60.273 417.901-.001 115.399 60.272 115.399 157.995-.002 218.267z" fill="#fff"/><path d="M449.425 10.88l-.724-.508a4.902 4.902 0 00-4.418-.388L312.829 71.2a4.898 4.898 0 00-2.546 3.63l-15.345 174.335a4.895 4.895 0 001.873 4.02l.724.507a4.902 4.902 0 004.418.389l131.453-61.216a4.9 4.9 0 002.546-3.631l15.345-174.335a4.895 4.895 0 00-1.872-4.02z" fill="#FAFAFA"/><path d="M302.609 161.995l7.671-87.165a4.534 4.534 0 01.838-2.12l6.766 4.742-15.526 176.435-.407.189a4.893 4.893 0 01-4.417-.388l-.724-.507a4.905 4.905 0 01-1.872-4.02l7.671-87.166z" fill="#C0BCD6"/><path d="M449.2 13.43L317.747 74.646a4.903 4.903 0 00-2.546 3.631l-15.344 174.334c-.124 1.409.814 2.067 2.096 1.47l131.453-61.216a4.9 4.9 0 002.546-3.631L451.297 14.9c.124-1.409-.815-2.067-2.097-1.47z" fill="#F5F5F5"/><path d="M431.815 32.998l-98.794 46.006a4.898 4.898 0 00-2.546 3.632l-.603 6.862c-.124 1.408.814 2.066 2.096 1.47l98.794-46.007a4.898 4.898 0 002.546-3.631l.604-6.862c.124-1.41-.815-2.067-2.097-1.47z" fill="url(#paint0_linear_232_1212)"/><path d="M406.552 92.19c-4.801-3.365-3.968-12.832 1.861-21.147 5.829-8.315 14.446-12.327 19.247-8.963 4.801 3.364 3.968 12.832-1.861 21.146-5.829 8.315-14.446 12.328-19.247 8.963z" fill="url(#paint1_linear_232_1212)"/><path d="M417.895 66.974c2.637-1.229 4.569.125 4.314 3.022a10.083 10.083 0 01-5.237 7.47c-2.637 1.228-4.568-.126-4.313-3.023a10.076 10.076 0 015.236-7.47zm-2.297 12.522l2.708-1.26c4.332-2.019 7.505.205 7.086 4.965l-.057.647a26.182 26.182 0 01-9.547 8.24c-3.552 1.654-6.643 1.648-8.85.328l.057-.647a16.555 16.555 0 018.603-12.273z" fill="#1BC082"/><path d="M425.444 99.079l-21.417 9.973a5.948 5.948 0 00-3.165 4.342c-.145 1.651 1.036 2.386 2.639 1.639l21.416-9.973a5.941 5.941 0 003.165-4.342c.146-1.652-1.036-2.386-2.638-1.64z" fill="url(#paint2_linear_232_1212)"/><path d="M424.393 111.033l-21.417 9.974a5.938 5.938 0 00-3.165 4.341c-.145 1.652 1.036 2.386 2.639 1.64l21.417-9.974a5.938 5.938 0 003.164-4.341c.146-1.652-1.035-2.386-2.638-1.64z" fill="url(#paint3_linear_232_1212)"/><path d="M423.34 122.988l-21.417 9.974a5.938 5.938 0 00-3.164 4.341c-.146 1.652 1.036 2.386 2.638 1.64l21.417-9.973a5.954 5.954 0 003.165-4.342c.145-1.652-1.036-2.386-2.639-1.64z" fill="url(#paint4_linear_232_1212)"/><path d="M422.29 134.943l-21.417 9.973a5.941 5.941 0 00-3.165 4.342c-.145 1.652 1.036 2.386 2.638 1.639l21.417-9.973a5.94 5.94 0 003.165-4.342c.145-1.651-1.036-2.385-2.638-1.639z" fill="url(#paint5_linear_232_1212)"/><path d="M420.71 152.892l-21.417 9.973a6.121 6.121 0 00-3.182 4.539l-1.018 11.568c-.155 1.76 1.018 2.583 2.62 1.836l21.417-9.973a6.121 6.121 0 003.182-4.539l1.018-11.568c.155-1.76-1.018-2.583-2.62-1.836zM386.102 71.49L332.02 96.678a5.95 5.95 0 00-3.165 4.342c-.145 1.652 1.036 2.386 2.639 1.64l54.081-25.187a5.944 5.944 0 003.165-4.342c.146-1.652-1.035-2.386-2.638-1.64zm-1.051 11.964l-54.081 25.185a5.954 5.954 0 00-3.165 4.342c-.145 1.652 1.036 2.386 2.639 1.64l54.081-25.186a5.95 5.95 0 003.165-4.342c.145-1.652-1.036-2.386-2.639-1.64zm-1.052 11.962l-54.081 25.186a5.933 5.933 0 00-3.165 4.342c-.146 1.651 1.035 2.385 2.638 1.639l54.081-25.186a5.941 5.941 0 003.165-4.342c.145-1.651-1.036-2.385-2.638-1.64z" fill="#1BC082"/><path d="M155.312 408.025l-28.856-20.222a12.253 12.253 0 01-4.681-10.049l15.199-172.666a12.256 12.256 0 016.364-9.079l217.039-101.07a12.252 12.252 0 0111.045.971l28.856 20.222a12.25 12.25 0 014.68 10.049L389.76 298.847a12.26 12.26 0 01-6.365 9.078L166.357 408.996a12.251 12.251 0 01-11.045-.971z" fill="#573CDA"/><path d="M136.972 205.084a11.33 11.33 0 012.097-5.299l42.719 29.938-15.79 179.397a12.294 12.294 0 01-10.684-1.099l-28.863-20.227a12.262 12.262 0 01-4.676-10.043l15.197-172.667z" fill="#19104E"/><path d="M182.678 223.578l217.038-101.07c3.205-1.492 5.552.153 5.242 3.674l-15.199 172.665a12.24 12.24 0 01-6.364 9.078L166.358 408.996c-3.205 1.493-5.552-.152-5.242-3.673l15.197-172.666a12.254 12.254 0 016.365-9.079z" fill="#2A206A"/><path d="M165.473 211.522a12.256 12.256 0 00-6.365 9.079l-15.759 179.041-4.919-3.447 15.761-179.04a12.253 12.253 0 016.364-9.079l222.842-103.773 4.916 3.447-222.84 103.772z" fill="#3D2B93"/><path d="M160.55 208.08l222.49-103.61 5.092 3.365-222.665 103.691a11.33 11.33 0 00-4.267 3.778l-4.917-3.446a11.33 11.33 0 014.267-3.778z" fill="#3D2B93"/><path d="M195.071 183.388l3.832-1.785a6.119 6.119 0 012.82-.417c.96.084 1.886.393 2.703.903l13.297 9.318 2.398-.503-.264 2.99a1.94 1.94 0 01-1.283 1.494l-5.086 2.368a6.121 6.121 0 01-5.522-.486l-14.428-10.111a1.949 1.949 0 01-1.003-1.694l.263-2.991 2.273.914z" fill="#2A206A"/><path d="M194.082 180.984l5.085-2.368a6.13 6.13 0 015.522.485l14.427 10.109a1.686 1.686 0 01.601 2.647c-.23.268-.539.457-.882.541l-5.085 2.368a6.132 6.132 0 01-5.523-.485l-14.426-10.109a1.686 1.686 0 01-1.003-1.694 1.693 1.693 0 011.284-1.494z" fill="#3D2B93"/><path d="M325.725 122.559l3.832-1.785a6.123 6.123 0 015.524.486l13.296 9.318 2.398-.504-.263 2.991a1.946 1.946 0 01-1.284 1.494l-5.085 2.368a6.132 6.132 0 01-5.523-.486l-14.427-10.111a1.951 1.951 0 01-1.003-1.694h-.001l.263-2.991 2.273.914z" fill="#2A206A"/><path d="M324.736 120.155l5.085-2.368a6.13 6.13 0 015.523.484l14.427 10.109a1.69 1.69 0 01-.281 3.188l-5.086 2.369a6.132 6.132 0 01-5.523-.485l-14.426-10.109a1.69 1.69 0 01.281-3.188z" fill="#3D2B93"/><path d="M285.571 118.307l-1.579 17.942 9.829 6.891 2.407-27.352c.125-1.416-.808-2.063-2.094-1.469l-8.563 3.988z" fill="#263238"/><path d="M229.577 132.557l-2.935 33.346 7.298 5.127 5.443-2.542 2.408-27.353a4.931 4.931 0 012.542-3.631l41.238-19.197 8.564-3.989c1.286-.594 2.218.053 2.094 1.469l-2.408 27.353 5.455-2.541 2.934-33.333a2.657 2.657 0 000-.437 4.932 4.932 0 00-1.883-3.584l-3.11-2.188a4.907 4.907 0 00-4.413-.388l-60.684 28.256a4.918 4.918 0 00-2.543 3.632z" fill="#573CDA"/><path d="M236.875 137.683l-2.935 33.346 5.443-2.541 2.407-27.353a4.928 4.928 0 012.543-3.631l41.237-19.198 8.564-3.989c1.286-.593 2.219.054 2.094 1.47l-2.407 27.353 5.454-2.541 2.934-33.333a2.453 2.453 0 000-.437c-.096-1.101-.967-1.563-2.107-1.034l-60.683 28.257a4.94 4.94 0 00-2.544 3.631z" fill="#2A206A"/><path d="M129.652 466.22l-4.917-3.447 18.325-148.878a6.142 6.142 0 013.183-4.539l103.075-48.002a9.977 9.977 0 004.21-4.272l3.879-8.656a9.763 9.763 0 014.229-4.232l48.517-21.795c1.606-.721 2.793.123 2.639 1.877L298.693 384.44a6.142 6.142 0 01-1.051 2.648 6.127 6.127 0 01-2.131 1.891L129.652 466.22z" fill="#1BC082"/><path opacity=".2" d="M129.652 466.22l-4.917-3.447 18.325-148.878a6.142 6.142 0 013.183-4.539l103.075-48.002a9.977 9.977 0 004.21-4.272l3.879-8.656a9.763 9.763 0 014.229-4.232l48.517-21.795c1.606-.721 2.793.123 2.639 1.877L298.693 384.44a6.142 6.142 0 01-1.051 2.648 6.127 6.127 0 01-2.131 1.891L129.652 466.22z" fill="#000"/><path d="M227.409 219.937L112.29 273.548a4.903 4.903 0 00-2.546 3.632L93.872 457.496c-.124 1.408.814 2.066 2.097 1.469l115.117-53.612a4.903 4.903 0 002.546-3.632l15.874-180.315c.124-1.409-.815-2.066-2.097-1.469z" fill="#fff"/><path opacity=".5" d="M94.896 459.816a2.67 2.67 0 001.344-.269l115.116-53.615a5.533 5.533 0 002.913-4.155l15.875-180.316a1.982 1.982 0 00-.791-2.067 1.976 1.976 0 00-2.214-.039l-115.117 53.614a5.53 5.53 0 00-2.913 4.154L93.235 457.441a2.163 2.163 0 00.79 2.066c.258.178.558.285.87.309zm133.469-239.458a.513.513 0 01.254.085.994.994 0 01.25.906l-15.875 180.316a4.253 4.253 0 01-2.179 3.106L95.699 458.387a.738.738 0 01-.938.072.735.735 0 01-.25-.906l15.873-180.317a4.272 4.272 0 012.179-3.108l115.117-53.612c.211-.11.447-.165.685-.158z" fill="#C0BCD6"/><path d="M214.362 243.223l-54.081 25.186a5.948 5.948 0 00-3.165 4.342c-.146 1.652 1.035 2.386 2.638 1.639l54.081-25.186a5.936 5.936 0 003.165-4.342c.146-1.652-1.036-2.386-2.638-1.639z" fill="url(#paint6_linear_232_1212)"/><path d="M212.782 261.164l-92.19 42.93a5.948 5.948 0 00-3.165 4.342c-.145 1.652 1.036 2.386 2.638 1.639l92.19-42.929a5.95 5.95 0 003.165-4.342c.145-1.652-1.036-2.386-2.638-1.64z" fill="url(#paint7_linear_232_1212)"/><path d="M211.204 279.108l-92.19 42.93a5.938 5.938 0 00-3.165 4.342c-.146 1.651 1.035 2.386 2.638 1.639l92.19-42.93a5.938 5.938 0 003.165-4.342c.145-1.651-1.036-2.385-2.638-1.639z" fill="url(#paint8_linear_232_1212)"/><path d="M209.625 297.052l-92.189 42.93a5.938 5.938 0 00-3.165 4.342c-.146 1.651 1.035 2.385 2.638 1.639l92.19-42.93a5.938 5.938 0 003.165-4.342c.145-1.652-1.036-2.386-2.639-1.639z" fill="url(#paint9_linear_232_1212)"/><path d="M208.045 314.996l-92.189 42.93a5.948 5.948 0 00-3.165 4.342c-.146 1.652 1.035 2.386 2.638 1.639l92.19-42.929a5.954 5.954 0 003.165-4.342c.145-1.652-1.036-2.386-2.639-1.64z" fill="url(#paint10_linear_232_1212)"/><path d="M206.467 332.94l-92.189 42.93a5.93 5.93 0 00-2.101 1.793 5.931 5.931 0 00-1.064 2.549c-.146 1.651 1.035 2.386 2.638 1.639l92.19-42.93a5.938 5.938 0 003.165-4.342c.145-1.651-1.036-2.385-2.639-1.639z" fill="url(#paint11_linear_232_1212)"/><path d="M204.887 350.884l-92.189 42.93a5.945 5.945 0 00-3.166 4.342c-.145 1.651 1.036 2.385 2.639 1.639l92.19-42.93a5.938 5.938 0 003.164-4.342c.146-1.651-1.035-2.386-2.638-1.639z" fill="url(#paint12_linear_232_1212)"/><path d="M203.309 368.828l-92.189 42.929a5.941 5.941 0 00-3.166 4.342c-.145 1.652 1.036 2.386 2.639 1.64l92.189-42.93a5.943 5.943 0 003.165-4.342c.146-1.652-1.035-2.386-2.638-1.639z" fill="url(#paint13_linear_232_1212)"/><path d="M242.165 230.264l-115.118 53.613a4.903 4.903 0 00-2.546 3.632l-15.873 180.316c-.124 1.409.814 2.067 2.096 1.47l115.117-53.614a4.908 4.908 0 002.545-3.631l15.876-180.316c.124-1.409-.815-2.067-2.097-1.47z" fill="#fff"/><path d="M109.65 470.145c.464.029.928-.064 1.344-.271l115.117-53.613a5.533 5.533 0 002.913-4.155L244.9 231.79a1.98 1.98 0 00-1.892-2.426 1.986 1.986 0 00-1.113.32l-115.118 53.614a5.533 5.533 0 00-2.913 4.155l-15.873 180.316a2.186 2.186 0 00.792 2.067c.256.178.556.285.867.309zm133.471-239.459a.52.52 0 01.253.085.984.984 0 01.251.906l-15.876 180.317a4.267 4.267 0 01-2.178 3.108l-115.117 53.613a.746.746 0 01-.456.205.744.744 0 01-.732-1.039l15.874-180.316a4.279 4.279 0 012.177-3.108l115.118-53.613c.212-.11.448-.164.686-.158z" fill="url(#paint14_linear_232_1212)"/><path d="M193.403 269.166l-54.081 25.186a5.938 5.938 0 00-3.165 4.342c-.146 1.652 1.035 2.386 2.638 1.639l54.081-25.186a5.936 5.936 0 003.165-4.342c.146-1.652-1.036-2.386-2.638-1.639z" fill="url(#paint15_linear_232_1212)"/><path d="M227.539 271.493l-92.189 42.929a5.951 5.951 0 00-3.165 4.343c-.146 1.651 1.035 2.385 2.638 1.639l92.19-42.93a5.938 5.938 0 003.165-4.342c.145-1.652-1.036-2.386-2.639-1.639z" fill="url(#paint16_linear_232_1212)"/><path d="M225.961 289.436l-92.189 42.93a5.941 5.941 0 00-3.165 4.342c-.146 1.652 1.035 2.386 2.638 1.64l92.19-42.93a5.948 5.948 0 003.165-4.342c.145-1.652-1.036-2.386-2.639-1.64z" fill="url(#paint17_linear_232_1212)"/><path d="M224.381 307.381l-92.189 42.93a5.938 5.938 0 00-3.165 4.342c-.146 1.651 1.035 2.385 2.638 1.639l92.19-42.93a5.938 5.938 0 003.165-4.342c.145-1.651-1.036-2.385-2.639-1.639z" fill="url(#paint18_linear_232_1212)"/><path d="M222.803 325.325l-92.189 42.93a5.93 5.93 0 00-2.101 1.793 5.932 5.932 0 00-1.064 2.548c-.146 1.652 1.035 2.386 2.638 1.64l92.19-42.93a5.938 5.938 0 003.165-4.342c.145-1.652-1.036-2.386-2.639-1.639z" fill="url(#paint19_linear_232_1212)"/><path d="M221.225 343.268l-92.189 42.93a5.941 5.941 0 00-3.166 4.342c-.145 1.652 1.036 2.386 2.639 1.64l92.189-42.93a5.943 5.943 0 003.165-4.342c.146-1.652-1.035-2.386-2.638-1.64z" fill="url(#paint20_linear_232_1212)"/><path d="M219.645 361.213l-92.189 42.93a5.933 5.933 0 00-3.166 4.342c-.145 1.651 1.036 2.385 2.638 1.639l92.19-42.93a5.933 5.933 0 003.165-4.342c.146-1.651-1.035-2.385-2.638-1.639z" fill="url(#paint21_linear_232_1212)"/><path d="M218.067 379.157l-92.189 42.93a5.933 5.933 0 00-3.166 4.342c-.145 1.651 1.036 2.385 2.638 1.639l92.19-42.93a5.921 5.921 0 002.101-1.793 5.931 5.931 0 001.064-2.549c.146-1.652-1.036-2.386-2.638-1.639z" fill="url(#paint22_linear_232_1212)"/><path d="M129.653 466.218l37.421-135.197a7.907 7.907 0 013.755-4.435l162.961-75.887c1.596-.744 2.517.036 2.048 1.733L299.27 384.545a7.903 7.903 0 01-3.755 4.435l-165.862 77.238z" fill="#1BC082"/><path d="M532.178 316.492a135.186 135.186 0 01-54.997-121.065l3.988-45.3c.123-1.403-.82-2.064-2.097-1.47l-120.567 56.148a4.92 4.92 0 00-2.546 3.632l-3.988 45.301a135.173 135.173 0 0054.526 120.72 5.335 5.335 0 005.404.507l120.039-55.903a1.368 1.368 0 00.848-2.01 1.366 1.366 0 00-.61-.56z" fill="#fff"/><path d="M409.089 376.091a6.03 6.03 0 003.083-.547l120.04-55.902a2.16 2.16 0 001.389-1.706 2.193 2.193 0 00-1.045-1.961 135.244 135.244 0 01-54.736-120.491l3.987-45.301a1.978 1.978 0 00-3.004-2.106l-120.568 56.148a5.533 5.533 0 00-2.913 4.156l-3.988 45.301a136.614 136.614 0 0011.622 67.768 136.614 136.614 0 0043.163 53.523 5.865 5.865 0 002.97 1.118zm122.712-59.083c.358.263.55.556.526.803-.024.244-.262.488-.656.672l-120.04 55.902a4.683 4.683 0 01-4.753-.442 135.319 135.319 0 01-54.268-120.149l3.987-45.301a4.267 4.267 0 012.179-3.107l120.567-56.148a.738.738 0 01.936-.071.74.74 0 01.253.904l-3.988 45.3a136.535 136.535 0 0055.257 121.637z" fill="#C0BCD6"/><path d="M461.631 171.344l-32.305 15.046a5.93 5.93 0 00-2.101 1.793 5.931 5.931 0 00-1.064 2.549c-.145 1.651 1.036 2.385 2.638 1.639l32.306-15.045a5.954 5.954 0 003.165-4.342c.145-1.652-1.036-2.386-2.639-1.64z" fill="url(#paint23_linear_232_1212)"/><path d="M369.158 239.722c-.146 1.651 1.036 2.385 2.638 1.639l32.299-15.037a5.938 5.938 0 003.165-4.341c.145-1.652-1.036-2.386-2.639-1.64l-32.298 15.037a5.95 5.95 0 00-3.165 4.342z" fill="url(#paint24_linear_232_1212)"/><path d="M368.044 266.312c.099 1.538 1.507 2.178 3.11 1.431l86.724-40.387a4.74 4.74 0 002.706-4.141c-.093-1.541-1.434-2.187-3.037-1.44l-86.752 40.398a4.777 4.777 0 00-2.751 4.139z" fill="url(#paint25_linear_232_1212)"/><path d="M370.048 282.598c.272 1.458 1.823 2.03 3.425 1.284l86.727-40.4a4.012 4.012 0 002.385-3.986c-.27-1.457-1.758-2.039-3.36-1.292l-86.739 40.399a4.06 4.06 0 00-2.438 3.995z" fill="url(#paint26_linear_232_1212)"/><path d="M373.86 298.029c.429 1.382 2.101 1.891 3.703 1.145l86.739-40.387a3.443 3.443 0 002.091-3.85 2.476 2.476 0 00-2.624-1.541 2.48 2.48 0 00-1.018.371l-86.739 40.4a3.499 3.499 0 00-2.152 3.862z" fill="url(#paint27_linear_232_1212)"/><path d="M379.356 312.681a2.92 2.92 0 003.988 1.009l86.724-40.376a2.996 2.996 0 001.826-3.719 2.864 2.864 0 00-.737-.847 2.843 2.843 0 00-3.189-.194l-86.738 40.387a3.043 3.043 0 00-1.874 3.74z" fill="url(#paint28_linear_232_1212)"/><path d="M427.333 313.29a3.497 3.497 0 004.338.844l48.636-22.648c.35-.109.671-.294.942-.541a2.496 2.496 0 00.517-3.008 3.44 3.44 0 00-4.296-.876l-48.637 22.659c-1.602.747-2.283 2.35-1.5 3.57z" fill="url(#paint29_linear_232_1212)"/><path d="M415.892 343.255c4.727 5.734 15.161 7.096 22.682 3.594 7.52-3.502 9.275-10.536 4.549-16.267-4.727-5.731-14.123-7.952-21.643-4.454-7.52 3.499-10.316 11.393-5.588 17.127z" fill="#1BC082"/><path opacity=".2" d="M415.892 343.255c4.727 5.734 15.161 7.096 22.682 3.594 7.52-3.502 9.275-10.536 4.549-16.267-4.727-5.731-14.123-7.952-21.643-4.454-7.52 3.499-10.316 11.393-5.588 17.127z" fill="#000"/><path d="M416.032 341.657c4.727 5.734 15.162 7.096 22.682 3.594 7.52-3.502 9.276-10.536 4.549-16.267-4.727-5.731-14.122-7.951-21.643-4.453-7.52 3.498-10.315 11.392-5.588 17.126z" fill="#1BC082"/><path d="M428.016 343.252c3.103.297 6.23-.214 9.078-1.483 2.662-1.24 4.378-3.022 4.829-5.016a6.314 6.314 0 00-1.623-5.326 14.106 14.106 0 00-9.565-4.67 14.727 14.727 0 00-7.494 1.256 9.517 9.517 0 00-5.541 6.09 5.796 5.796 0 001.297 5.112 13.103 13.103 0 009.019 4.037z" fill="#1BC082"/><path opacity=".3" d="M428.016 343.252c3.103.297 6.23-.214 9.078-1.483 2.662-1.24 4.378-3.022 4.829-5.016a6.314 6.314 0 00-1.623-5.326 14.106 14.106 0 00-9.565-4.67 14.727 14.727 0 00-7.494 1.256 9.517 9.517 0 00-5.541 6.09 5.796 5.796 0 001.297 5.112 13.103 13.103 0 009.019 4.037z" fill="#000"/><path d="M423.1 329.621a14.729 14.729 0 017.494-1.256 14.103 14.103 0 019.565 4.671 7.12 7.12 0 011.723 3.853 8.049 8.049 0 01-4.788 4.88 18.067 18.067 0 01-9.077 1.483 13.1 13.1 0 01-9.019-4.037 5.969 5.969 0 01-1.43-3.532 9.53 9.53 0 015.532-6.062z" fill="#1BC082"/><path opacity=".2" d="M423.1 329.621a14.729 14.729 0 017.494-1.256 14.103 14.103 0 019.565 4.671 7.12 7.12 0 011.723 3.853 8.049 8.049 0 01-4.788 4.88 18.067 18.067 0 01-9.077 1.483 13.1 13.1 0 01-9.019-4.037 5.969 5.969 0 01-1.43-3.532 9.53 9.53 0 015.532-6.062z" fill="#000"/></g><defs><linearGradient id="paint0_linear_232_1212" x1="384.833" y1="28.563" x2="378.957" y2="95.403" gradientUnits="userSpaceOnUse"><stop stop-color="#C0BCD6"/><stop offset="1" stop-color="#D5D5D5"/></linearGradient><linearGradient id="paint1_linear_232_1212" x1="427.66" y1="62.08" x2="406.558" y2="92.194" gradientUnits="userSpaceOnUse"><stop stop-color="#C0BCD6"/><stop offset="1" stop-color="#D5D5D5"/></linearGradient><linearGradient id="paint2_linear_232_1212" x1="415.288" y1="97.784" x2="413.658" y2="116.328" gradientUnits="userSpaceOnUse"><stop stop-color="#C0BCD6"/><stop offset="1" stop-color="#D5D5D5"/></linearGradient><linearGradient id="paint3_linear_232_1212" x1="414.238" y1="109.738" x2="412.607" y2="128.283" gradientUnits="userSpaceOnUse"><stop stop-color="#C0BCD6"/><stop offset="1" stop-color="#D5D5D5"/></linearGradient><linearGradient id="paint4_linear_232_1212" x1="413.185" y1="121.693" x2="411.554" y2="140.238" gradientUnits="userSpaceOnUse"><stop stop-color="#C0BCD6"/><stop offset="1" stop-color="#D5D5D5"/></linearGradient><linearGradient id="paint5_linear_232_1212" x1="412.134" y1="133.648" x2="410.504" y2="152.193" gradientUnits="userSpaceOnUse"><stop stop-color="#C0BCD6"/><stop offset="1" stop-color="#D5D5D5"/></linearGradient><linearGradient id="paint6_linear_232_1212" x1="188.664" y1="240.562" x2="185.457" y2="277.052" gradientUnits="userSpaceOnUse"><stop stop-color="#C0BCD6"/><stop offset="1" stop-color="#D5D5D5"/></linearGradient><linearGradient id="paint7_linear_232_1212" x1="168.951" y1="256.909" x2="163.903" y2="314.331" gradientUnits="userSpaceOnUse"><stop stop-color="#C0BCD6"/><stop offset="1" stop-color="#D5D5D5"/></linearGradient><linearGradient id="paint8_linear_232_1212" x1="167.373" y1="274.853" x2="162.325" y2="332.275" gradientUnits="userSpaceOnUse"><stop stop-color="#C0BCD6"/><stop offset="1" stop-color="#D5D5D5"/></linearGradient><linearGradient id="paint9_linear_232_1212" x1="165.795" y1="292.797" x2="160.747" y2="350.219" gradientUnits="userSpaceOnUse"><stop stop-color="#C0BCD6"/><stop offset="1" stop-color="#D5D5D5"/></linearGradient><linearGradient id="paint10_linear_232_1212" x1="164.215" y1="310.741" x2="159.167" y2="368.163" gradientUnits="userSpaceOnUse"><stop stop-color="#C0BCD6"/><stop offset="1" stop-color="#D5D5D5"/></linearGradient><linearGradient id="paint11_linear_232_1212" x1="162.637" y1="328.685" x2="157.589" y2="386.107" gradientUnits="userSpaceOnUse"><stop stop-color="#C0BCD6"/><stop offset="1" stop-color="#D5D5D5"/></linearGradient><linearGradient id="paint12_linear_232_1212" x1="161.057" y1="346.629" x2="156.009" y2="404.051" gradientUnits="userSpaceOnUse"><stop stop-color="#C0BCD6"/><stop offset="1" stop-color="#D5D5D5"/></linearGradient><linearGradient id="paint13_linear_232_1212" x1="159.478" y1="364.573" x2="154.431" y2="421.994" gradientUnits="userSpaceOnUse"><stop stop-color="#C0BCD6"/><stop offset="1" stop-color="#D5D5D5"/></linearGradient><linearGradient id="paint14_linear_232_1212" x1="187.482" y1="224.479" x2="165.456" y2="475.051" gradientUnits="userSpaceOnUse"><stop stop-color="#C0BCD6"/><stop offset="1" stop-color="#D5D5D5"/></linearGradient><linearGradient id="paint15_linear_232_1212" x1="167.705" y1="266.505" x2="164.498" y2="302.995" gradientUnits="userSpaceOnUse"><stop stop-color="#C0BCD6"/><stop offset="1" stop-color="#D5D5D5"/></linearGradient><linearGradient id="paint16_linear_232_1212" x1="183.709" y1="267.238" x2="178.661" y2="324.66" gradientUnits="userSpaceOnUse"><stop stop-color="#C0BCD6"/><stop offset="1" stop-color="#D5D5D5"/></linearGradient><linearGradient id="paint17_linear_232_1212" x1="182.131" y1="285.182" x2="177.083" y2="342.603" gradientUnits="userSpaceOnUse"><stop stop-color="#C0BCD6"/><stop offset="1" stop-color="#D5D5D5"/></linearGradient><linearGradient id="paint18_linear_232_1212" x1="180.551" y1="303.126" x2="175.503" y2="360.548" gradientUnits="userSpaceOnUse"><stop stop-color="#C0BCD6"/><stop offset="1" stop-color="#D5D5D5"/></linearGradient><linearGradient id="paint19_linear_232_1212" x1="178.973" y1="321.07" x2="173.925" y2="378.492" gradientUnits="userSpaceOnUse"><stop stop-color="#C0BCD6"/><stop offset="1" stop-color="#D5D5D5"/></linearGradient><linearGradient id="paint20_linear_232_1212" x1="177.394" y1="339.014" x2="172.347" y2="396.435" gradientUnits="userSpaceOnUse"><stop stop-color="#C0BCD6"/><stop offset="1" stop-color="#D5D5D5"/></linearGradient><linearGradient id="paint21_linear_232_1212" x1="175.814" y1="356.958" x2="170.767" y2="414.38" gradientUnits="userSpaceOnUse"><stop stop-color="#C0BCD6"/><stop offset="1" stop-color="#D5D5D5"/></linearGradient><linearGradient id="paint22_linear_232_1212" x1="174.236" y1="374.902" x2="169.189" y2="432.324" gradientUnits="userSpaceOnUse"><stop stop-color="#C0BCD6"/><stop offset="1" stop-color="#D5D5D5"/></linearGradient><linearGradient id="paint23_linear_232_1212" x1="446.295" y1="169.594" x2="444.139" y2="194.122" gradientUnits="userSpaceOnUse"><stop stop-color="#C0BCD6"/><stop offset="1" stop-color="#D5D5D5"/></linearGradient><linearGradient id="paint24_linear_232_1212" x1="389.288" y1="218.593" x2="387.133" y2="243.111" gradientUnits="userSpaceOnUse"><stop stop-color="#C0BCD6"/><stop offset="1" stop-color="#D5D5D5"/></linearGradient><linearGradient id="paint25_linear_232_1212" x1="416.693" y1="217.753" x2="411.945" y2="271.763" gradientUnits="userSpaceOnUse"><stop stop-color="#C0BCD6"/><stop offset="1" stop-color="#D5D5D5"/></linearGradient><linearGradient id="paint26_linear_232_1212" x1="418.685" y1="234.185" x2="413.963" y2="287.901" gradientUnits="userSpaceOnUse"><stop stop-color="#C0BCD6"/><stop offset="1" stop-color="#D5D5D5"/></linearGradient><linearGradient id="paint27_linear_232_1212" x1="422.491" y1="249.708" x2="417.788" y2="303.195" gradientUnits="userSpaceOnUse"><stop stop-color="#C0BCD6"/><stop offset="1" stop-color="#D5D5D5"/></linearGradient><linearGradient id="paint28_linear_232_1212" x1="427.976" y1="264.503" x2="423.295" y2="317.75" gradientUnits="userSpaceOnUse"><stop stop-color="#C0BCD6"/><stop offset="1" stop-color="#D5D5D5"/></linearGradient><linearGradient id="paint29_linear_232_1212" x1="455.946" y1="284.61" x2="453.134" y2="316.593" gradientUnits="userSpaceOnUse"><stop stop-color="#C0BCD6"/><stop offset="1" stop-color="#D5D5D5"/></linearGradient><clipPath id="clip0_232_1212"><path fill="#fff" transform="matrix(-1 0 0 1 591 0)" d="M0 0h591v525H0z"/></clipPath></defs></svg>