<svg width="720" height="528" fill="none" xmlns="http://www.w3.org/2000/svg"><g filter="url(#filter0_d_232_654)"><path d="M495.557 420.443L35.341 297.129l189.507-189.508 460.217 123.315-189.508 189.507z" fill="#573CDA"/><path d="M82.094 291.963l413.842 110.889M92.853 281.203l413.843 110.889M103.609 270.445l413.843 110.889M114.371 259.686l413.843 110.888M125.127 248.928l413.842 110.889m-403.08-121.648l413.842 110.889M146.645 227.411L560.487 338.3M157.404 216.651L571.247 327.54M168.166 205.892l413.842 110.889M178.922 195.134l413.842 110.889M189.682 184.375l413.842 110.889M200.439 173.617l413.843 110.889M211.199 162.857l413.843 110.889M221.961 152.099l413.842 110.889M232.717 141.34l413.842 110.889M243.477 130.581L657.319 241.47" opacity=".5" stroke="#2A206A" stroke-linecap="round" stroke-linejoin="round"/><path d="M72.761 288.362c-.612-.164-.92-.417-.92-.761.002-.341.217-.735.644-1.18l.435-.445.46-.451a4.31 4.31 0 011.49-.954c.543-.197 1.12-.214 1.733-.05.612.164.916.417.913.759.002.343-.21.737-.637 1.182a29.97 29.97 0 01-.896.897 4.254 4.254 0 01-1.497.951c-.538.199-1.113.216-1.725.052zm.32-.32c.418.112.835.095 1.252-.05.425-.148.83-.409 1.217-.783a23.692 23.692 0 00.843-.843c.36-.373.534-.691.522-.956-.004-.267-.215-.457-.633-.569a2.102 2.102 0 00-1.27.059c-.42.149-.82.407-1.199.775l-.423.414-.42.429c-.367.379-.547.701-.54.964.016.262.233.448.651.56zm16.166-22.42c-.048-.013-.076-.035-.084-.064-.008-.029.006-.061.041-.097l3.18-3.18-2.04.387a.357.357 0 01-.13-.001c-.048-.013-.073-.04-.075-.081l-.006-.096c0-.031.014-.06.038-.084a.297.297 0 01.157-.074l2.427-.459a.549.549 0 01.227.014l.138.037c.049.013.077.034.085.063.008.029-.006.062-.042.097l-3.5 3.5a.288.288 0 01-.278.075l-.138-.037zm3.084.893c-.612-.164-.92-.417-.921-.76.003-.342.218-.736.644-1.181l.436-.445.46-.451a4.308 4.308 0 011.49-.954c.543-.197 1.12-.214 1.732-.05.612.164.917.417.914.759.002.343-.21.737-.637 1.182a25.423 25.423 0 01-.896.897 4.253 4.253 0 01-1.498.951c-.537.199-1.112.216-1.724.052zm.32-.32c.418.112.835.096 1.252-.05.424-.148.83-.409 1.217-.783a23.692 23.692 0 00.843-.843c.36-.373.534-.691.522-.956-.004-.267-.215-.457-.633-.569a2.102 2.102 0 00-1.27.059c-.42.149-.82.407-1.199.775l-.423.414-.42.429c-.367.379-.547.701-.54.964.016.262.233.448.651.56zm14.786-22.788c-.048-.013-.077-.034-.084-.063-.008-.03.006-.062.041-.098l.08-.08c.071-.071.207-.129.407-.175l3.269-.876c.449-.11.781-.214.998-.314.217-.1.411-.235.581-.406.239-.238.331-.45.276-.636-.049-.185-.246-.323-.591-.416a1.913 1.913 0 00-.988-.001 2.35 2.35 0 00-.91.467.332.332 0 01-.156.073.285.285 0 01-.135.004l-.145-.039c-.049-.013-.079-.032-.09-.058-.003-.027.01-.056.038-.084.184-.172.42-.327.707-.467.287-.139.605-.232.954-.279.351-.05.7-.028 1.045.064.52.139.803.346.849.62.047.274-.085.566-.394.875a2.623 2.623 0 01-.766.525 6.426 6.426 0 01-1.144.377l-2.975.813 2.441.654c.054.015.084.036.092.065.008.03-.008.064-.047.103l-.08.08a.271.271 0 01-.136.072.29.29 0 01-.149 0l-2.988-.8zm5.73 1.603c-.612-.164-.919-.418-.921-.761.004-.342.218-.735.645-1.18l.435-.445.461-.452a4.308 4.308 0 011.49-.954c.542-.197 1.12-.214 1.732-.05.612.164.917.417.913.759.002.344-.21.738-.637 1.183-.094.1-.243.252-.446.455-.199.199-.349.346-.45.441a4.277 4.277 0 01-1.497.952c-.538.198-1.112.216-1.725.052zm.32-.32c.418.112.836.095 1.252-.051.425-.147.831-.408 1.218-.783.108-.102.252-.243.434-.425.181-.181.317-.32.409-.418.36-.372.534-.691.521-.956-.004-.267-.214-.457-.632-.568a2.103 2.103 0 00-1.27.058c-.42.149-.82.408-1.199.775l-.424.414-.419.429c-.368.38-.548.701-.54.965.016.261.233.448.65.56zm16.637-22.226c-.35-.094-.613-.218-.79-.374-.172-.155-.259-.32-.262-.496-.002-.177.072-.346.223-.509a.23.23 0 01.118-.063.284.284 0 01.136.003l.102.027c.049.013.081.033.097.06.02.023.012.062-.023.115-.142.228-.136.417.017.566.157.151.391.268.702.351.389.104.768.12 1.136.047.368-.073.681-.237.937-.493.49-.491.333-.844-.474-1.061l-.641-.171c-.049-.013-.077-.034-.085-.064-.008-.029.006-.061.042-.097l.08-.08a.55.55 0 01.193-.11l2.798-.894-2.201-.59c-.048-.013-.077-.034-.084-.063-.008-.03.006-.062.041-.097l.08-.08a.279.279 0 01.129-.074.271.271 0 01.154-.006l2.719.728c.053.014.084.036.092.065.008.029-.008.064-.047.103l-.08.08a.433.433 0 01-.16.086l-2.856.905.146.039c.515.138.832.336.951.593.123.259.01.562-.338.911a2.44 2.44 0 01-.824.537 3.135 3.135 0 01-1.003.218 3.37 3.37 0 01-1.025-.112zm4.36 1.168c-.613-.164-.919-.418-.921-.761.003-.342.218-.735.644-1.18l.436-.445.46-.451a4.288 4.288 0 011.49-.954c.543-.198 1.12-.214 1.732-.05.612.164.917.417.914.759.001.343-.211.737-.637 1.182a21.01 21.01 0 01-.447.455c-.199.199-.349.346-.45.441a4.245 4.245 0 01-1.497.952c-.537.199-1.112.216-1.724.052zm.32-.32c.418.112.835.095 1.251-.05.425-.148.831-.409 1.218-.784a22.765 22.765 0 00.843-.842c.36-.373.534-.692.522-.957-.004-.267-.215-.456-.633-.568a2.096 2.096 0 00-1.27.059c-.42.149-.819.407-1.199.774l-.424.414-.419.429c-.367.38-.547.701-.54.965.016.261.233.448.651.56zm17.416-22.086c-.048-.013-.077-.034-.085-.063-.007-.029.007-.062.042-.097l.843-.843-2.405-.645c-.049-.013-.077-.034-.085-.063-.007-.029.007-.062.042-.097l.085-.085a.654.654 0 01.241-.139l4.536-1.727a.468.468 0 01.173-.035.57.57 0 01.187.016l.299.08c.049.013.077.035.085.064.008.029-.006.061-.042.097l-2.337 2.337.664.177c.048.013.076.034.084.064.008.029-.006.061-.041.097l-.086.085a.29.29 0 01-.278.074l-.663-.177-.843.843a.276.276 0 01-.129.073.276.276 0 01-.148.001l-.139-.037zm1.12-1.323l2.076-2.076-4.065 1.542 1.989.534zm2.447 2.346c-.612-.164-.919-.417-.921-.761.003-.341.218-.735.644-1.18l.436-.445.461-.451a4.304 4.304 0 011.489-.954c.543-.197 1.12-.214 1.732-.05.612.164.917.417.914.759.002.343-.211.737-.637 1.182a25.423 25.423 0 01-.896.896 4.244 4.244 0 01-1.498.952c-.537.199-1.112.216-1.724.052zm.32-.32c.418.112.835.095 1.252-.05.424-.148.83-.409 1.217-.783.108-.102.253-.244.434-.425.182-.182.318-.321.409-.418.36-.373.534-.691.522-.956-.004-.267-.215-.457-.633-.569a2.1 2.1 0 00-1.269.059c-.42.149-.82.407-1.2.775l-.423.414-.42.428c-.367.38-.547.702-.54.965.016.262.233.448.651.56zm16.751-22.196c-.34-.092-.59-.217-.751-.377-.151-.163-.221-.337-.207-.523.018-.184.108-.363.269-.537l.01-.01a.194.194 0 01.101-.055.284.284 0 01.136.003l.138.037c.049.013.079.032.09.058.015.022.005.06-.03.114-.144.236-.158.438-.041.604.117.167.318.289.605.365.374.101.764.101 1.171.003a2.173 2.173 0 001.055-.583c.177-.178.274-.349.289-.511a.488.488 0 00-.163-.429c-.128-.125-.311-.219-.549-.283a1.773 1.773 0 00-.532-.068 3.569 3.569 0 00-.507.054 3.078 3.078 0 01-.267.036.492.492 0 01-.173-.012l-.131-.035c-.044-.012-.072-.033-.084-.064-.01-.034.004-.066.041-.097l1.963-1.686a.394.394 0 01.135-.079.29.29 0 01.149-.001l2.375.637c.049.013.077.034.085.063.008.029-.006.062-.042.097l-.085.086a.286.286 0 01-.129.073.28.28 0 01-.149.001l-2.091-.56-1.359 1.164a2.827 2.827 0 011.121.071c.331.088.581.214.751.377a.657.657 0 01.223.581c-.022.219-.16.455-.412.708a2.904 2.904 0 01-.916.62 3.198 3.198 0 01-2.089.158zm4.375 1.172c-.613-.164-.92-.418-.921-.761.003-.342.218-.736.644-1.181l.436-.444.46-.452a4.317 4.317 0 011.49-.954c.542-.197 1.12-.214 1.732-.05.612.164.917.417.914.759.001.343-.211.738-.637 1.182a23.03 23.03 0 01-.447.456c-.199.199-.349.346-.45.441a4.26 4.26 0 01-1.497.952c-.537.198-1.112.216-1.724.052zm.32-.32c.418.112.835.095 1.251-.051.425-.147.831-.408 1.218-.783.108-.102.252-.243.434-.425.181-.181.318-.321.409-.418.36-.372.534-.691.521-.956-.003-.267-.214-.457-.632-.569a2.104 2.104 0 00-1.27.059c-.42.149-.82.408-1.199.775l-.424.414-.419.429c-.368.379-.547.701-.54.965.016.261.233.448.651.56zm16.694-22.21c-.374-.1-.636-.245-.786-.434a.694.694 0 01-.141-.626c.056-.229.194-.453.415-.674.309-.309.777-.583 1.403-.821l2.914-1.093a.582.582 0 01.202-.054.35.35 0 01.131.008l.138.037c.044.012.065.033.065.065.008.029-.004.059-.036.091a.361.361 0 01-.106.06l-2.225.838c.175.011.354.041.539.09.374.1.636.245.786.434a.675.675 0 01.146.621c-.056.228-.195.453-.415.673a2.927 2.927 0 01-.823.565 3.438 3.438 0 01-1.069.302 2.991 2.991 0 01-1.138-.082zm.32-.32c.233.062.485.085.755.067.274-.021.543-.087.807-.197.263-.109.493-.262.689-.458.195-.195.302-.379.319-.55a.512.512 0 00-.161-.449c-.124-.128-.303-.223-.536-.286a2.249 2.249 0 00-.761-.061c-.27.017-.537.081-.801.191-.26.106-.488.257-.684.452-.196.196-.304.381-.325.556a.533.533 0 00.156.454c.128.125.309.218.542.281zm3.995 1.476c-.613-.164-.92-.417-.921-.761.003-.342.217-.735.644-1.18l.435-.445.461-.451a4.308 4.308 0 011.49-.954c.542-.198 1.12-.214 1.732-.05.612.164.917.417.914.759.001.343-.211.737-.637 1.182a21.01 21.01 0 01-.447.455c-.199.2-.349.347-.45.441a4.245 4.245 0 01-1.497.952c-.537.199-1.112.216-1.724.052zm.32-.32c.418.112.835.095 1.251-.05.425-.148.831-.409 1.218-.783a25.875 25.875 0 00.843-.843c.36-.373.534-.692.521-.956-.003-.268-.214-.457-.632-.569a2.104 2.104 0 00-1.27.059c-.42.149-.82.407-1.199.774l-.424.415-.419.428c-.368.38-.547.702-.54.965.016.261.233.448.651.56zm16.725-22.271c-.044-.012-.07-.032-.078-.061.001-.032.017-.063.049-.095l.063-.045 5.122-2.747-2.485-.666c-.049-.013-.077-.034-.085-.063-.008-.029.006-.062.042-.097l.08-.08a.288.288 0 01.129-.074.271.271 0 01.154-.006l2.813.754c.054.014.084.036.092.065.008.029-.008.063-.047.102l-.08.081c-.068.067-.15.128-.248.183l-5.045 2.707a1.004 1.004 0 01-.182.08.242.242 0 01-.141.003l-.153-.041zm4.627 1.308c-.612-.164-.919-.418-.92-.761.003-.342.217-.736.644-1.181l.435-.444.461-.452a4.308 4.308 0 011.49-.954c.542-.197 1.12-.214 1.732-.05.612.164.917.417.914.759.001.343-.211.737-.638 1.182-.094.101-.243.253-.446.456-.199.199-.349.346-.45.441a4.277 4.277 0 01-1.497.952c-.537.198-1.112.216-1.725.052zm.321-.321c.417.112.835.096 1.251-.05.425-.148.831-.409 1.218-.783.108-.102.252-.243.434-.425.181-.181.317-.321.409-.418.36-.372.534-.691.521-.956-.004-.267-.214-.457-.632-.569a2.104 2.104 0 00-1.27.059c-.42.149-.82.407-1.199.775l-.424.414-.419.429c-.368.379-.548.701-.54.965.016.261.233.447.651.559z" fill="#C0BCD6"/><g filter="url(#filter1_d_232_654)"><path d="M170.042 230.956l-8.725-2.339-38.742 38.743 8.725 2.337 38.742-38.741z" fill="url(#paint0_linear_232_654)"/><path d="M187.477 229.574l-8.725-2.338-18.534 18.534 8.725 2.339 18.534-18.535z" fill="url(#paint1_linear_232_654)"/><path d="M280.807 216.501l-8.725-2.337-44.974 44.974 8.724 2.337 44.975-44.974z" fill="url(#paint2_linear_232_654)"/><path d="M245.221 219.984l-8.724-2.338-34.97 34.97 8.724 2.337 34.97-34.969z" fill="url(#paint3_linear_232_654)"/><path d="M379.114 230.56l-8.724-2.337-52.923 52.923 8.724 2.339 52.923-52.925z" fill="url(#paint4_linear_232_654)"/><path d="M204.16 228.942l-8.726-2.337-13.898 13.899 8.724 2.337 13.9-13.899z" fill="url(#paint5_linear_232_654)"/><path d="M288.303 257.165l-8.725-2.337-9.42 9.421 8.725 2.337 9.42-9.421z" fill="url(#paint6_linear_232_654)"/><path d="M341.597 235.974l-8.725-2.337-29.68 29.68 8.724 2.338 29.681-29.681z" fill="url(#paint7_linear_232_654)"/><path d="M318.24 243.279l-8.724-2.337-21.496 21.495 8.724 2.339 21.496-21.497z" fill="url(#paint8_linear_232_654)"/><path d="M485.346 284.852l-8.724-2.338-55.859 55.856 8.726 2.339 55.857-55.857z" fill="url(#paint9_linear_232_654)"/><path d="M523.108 263.142l-8.724-2.339-55.857 55.857 8.724 2.337 55.857-55.855z" fill="url(#paint10_linear_232_654)"/><path d="M514.774 303.58l-8.726-2.339-15.449 15.45 8.724 2.338 15.451-15.449z" fill="url(#paint11_linear_232_654)"/><path d="M539.042 295.363l-8.726-2.337-21.256 21.256 8.724 2.337 21.258-21.256z" fill="url(#paint12_linear_232_654)"/><path d="M585.441 281.068l-8.726-2.337-35.451 35.452 8.724 2.339 35.453-35.454z" fill="url(#paint13_linear_232_654)"/><path d="M629.83 252.73l-8.724-2.337-55.302 55.301 8.726 2.337 55.3-55.301z" fill="url(#paint14_linear_232_654)"/><path d="M546.323 304.133l-8.725-2.338-9.234 9.233 8.724 2.339 9.235-9.234z" fill="url(#paint15_linear_232_654)"/><path d="M397.884 259.944l-8.725-2.337-40.027 40.028 8.724 2.337 40.028-40.028z" fill="url(#paint16_linear_232_654)"/><path d="M440.055 233.826l-8.724-2.339-63.496 63.496 8.725 2.338 63.495-63.495z" fill="url(#paint17_linear_232_654)"/><path d="M215.156 233.998l-8.726-2.339-26.766 26.767 8.724 2.337 26.768-26.765z" fill="url(#paint18_linear_232_654)"/><path d="M284.239 245.175l-8.726-2.337-41.728 41.728 8.724 2.338 41.73-41.729z" fill="url(#paint19_linear_232_654)"/><path d="M347.596 246.025l-8.724-2.339-41.729 41.729 8.726 2.339 41.727-41.729z" fill="url(#paint20_linear_232_654)"/><path d="M359.019 266.709l-8.726-2.337-27.393 27.393 8.724 2.339 27.395-27.395z" fill="url(#paint21_linear_232_654)"/><path d="M276.18 237.184l-8.726-2.339-32.031 32.033 8.724 2.337 32.033-32.031z" fill="url(#paint22_linear_232_654)"/><path d="M229.442 251.817l-8.724-2.338-9.422 9.421 8.726 2.337 9.42-9.42z" fill="url(#paint23_linear_232_654)"/><path d="M362.08 279.702l-8.724-2.337-21.496 21.495 8.724 2.339 21.496-21.497z" fill="url(#paint24_linear_232_654)"/><path d="M431.715 322.429l-8.725-2.338-21.496 21.495 8.726 2.339 21.495-21.496z" fill="url(#paint25_linear_232_654)"/><path d="M507.47 294.833l-8.726-2.339-30.899 30.901 8.725 2.337 30.9-30.899z" fill="url(#paint26_linear_232_654)"/><path d="M621.302 277.314l-8.726-2.337-35.453 35.452 8.725 2.337 35.454-35.452z" fill="url(#paint27_linear_232_654)"/><path d="M470.307 235.682l-8.724-2.338-56.225 56.224 8.726 2.338 56.223-56.224z" fill="url(#paint28_linear_232_654)"/><path d="M459.792 262.249l-8.724-2.338-46.171 46.17 8.724 2.338 46.171-46.17z" fill="url(#paint29_linear_232_654)"/><path d="M441.381 296.712l-8.725-2.338-35.077 35.076 8.726 2.339 35.076-35.077z" fill="url(#paint30_linear_232_654)"/><path d="M467.32 222.618l-8.724-2.337-75.906 75.904 8.726 2.338 75.904-75.905z" fill="url(#paint31_linear_232_654)"/><path d="M138.252 246.693l-8.725-2.337-30.73 30.729 8.725 2.338 30.73-30.73z" fill="url(#paint32_linear_232_654)"/></g><path d="M415.707 343.403a16.568 16.568 0 01-14.487 3.882c-4.62-1.238-5.623-4.983-2.241-8.364a16.57 16.57 0 0114.487-3.883c4.62 1.238 5.623 4.983 2.241 8.365z" stroke="#C0BCD6" stroke-width=".75" stroke-linecap="round" stroke-linejoin="round"/><path d="M631.12 255.205a14.512 14.512 0 01-12.682 3.399c-4.044-1.084-4.922-4.362-1.962-7.323a14.514 14.514 0 0112.683-3.398c4.043 1.084 4.922 4.362 1.961 7.322z" stroke="#1BC082" stroke-width=".75" stroke-miterlimit="10"/></g><defs><linearGradient id="paint0_linear_232_654" x1="142.179" y1="233.746" x2="150.438" y2="264.57" gradientUnits="userSpaceOnUse"><stop stop-color="#1BC082"/><stop offset="1" stop-color="#23C89A"/></linearGradient><linearGradient id="paint1_linear_232_654" x1="171.567" y1="229.162" x2="176.128" y2="246.183" gradientUnits="userSpaceOnUse"><stop stop-color="#1BC082"/><stop offset="1" stop-color="#23C89A"/></linearGradient><linearGradient id="paint2_linear_232_654" x1="249.258" y1="220.279" x2="258.657" y2="255.359" gradientUnits="userSpaceOnUse"><stop stop-color="#1BC082"/><stop offset="1" stop-color="#23C89A"/></linearGradient><linearGradient id="paint3_linear_232_654" x1="219.589" y1="222.177" x2="227.158" y2="250.423" gradientUnits="userSpaceOnUse"><stop stop-color="#1BC082"/><stop offset="1" stop-color="#23C89A"/></linearGradient><linearGradient id="paint4_linear_232_654" x1="342.863" y1="235.599" x2="353.718" y2="276.109" gradientUnits="userSpaceOnUse"><stop stop-color="#1BC082"/><stop offset="1" stop-color="#23C89A"/></linearGradient><linearGradient id="paint5_linear_232_654" x1="190.992" y1="227.796" x2="194.704" y2="241.65" gradientUnits="userSpaceOnUse"><stop stop-color="#1BC082"/><stop offset="1" stop-color="#23C89A"/></linearGradient><linearGradient id="paint6_linear_232_654" x1="277.784" y1="255.309" x2="280.677" y2="266.105" gradientUnits="userSpaceOnUse"><stop stop-color="#1BC082"/><stop offset="1" stop-color="#23C89A"/></linearGradient><linearGradient id="paint7_linear_232_654" x1="319.094" y1="237.328" x2="325.695" y2="261.963" gradientUnits="userSpaceOnUse"><stop stop-color="#1BC082"/><stop offset="1" stop-color="#23C89A"/></linearGradient><linearGradient id="paint8_linear_232_654" x1="300.579" y1="243.337" x2="305.681" y2="262.381" gradientUnits="userSpaceOnUse"><stop stop-color="#1BC082"/><stop offset="1" stop-color="#23C89A"/></linearGradient><linearGradient id="paint9_linear_232_654" x1="447.359" y1="290.355" x2="458.75" y2="332.868" gradientUnits="userSpaceOnUse"><stop stop-color="#1BC082"/><stop offset="1" stop-color="#23C89A"/></linearGradient><linearGradient id="paint10_linear_232_654" x1="485.122" y1="268.644" x2="496.513" y2="311.157" gradientUnits="userSpaceOnUse"><stop stop-color="#1BC082"/><stop offset="1" stop-color="#23C89A"/></linearGradient><linearGradient id="paint11_linear_232_654" x1="500.688" y1="302.678" x2="504.684" y2="317.592" gradientUnits="userSpaceOnUse"><stop stop-color="#1BC082"/><stop offset="1" stop-color="#23C89A"/></linearGradient><linearGradient id="paint12_linear_232_654" x1="521.521" y1="295.382" x2="526.58" y2="314.262" gradientUnits="userSpaceOnUse"><stop stop-color="#1BC082"/><stop offset="1" stop-color="#23C89A"/></linearGradient><linearGradient id="paint13_linear_232_654" x1="559.524" y1="283.337" x2="567.181" y2="311.915" gradientUnits="userSpaceOnUse"><stop stop-color="#1BC082"/><stop offset="1" stop-color="#23C89A"/></linearGradient><linearGradient id="paint14_linear_232_654" x1="592.173" y1="258.146" x2="603.462" y2="300.279" gradientUnits="userSpaceOnUse"><stop stop-color="#1BC082"/><stop offset="1" stop-color="#23C89A"/></linearGradient><linearGradient id="paint15_linear_232_654" x1="535.914" y1="302.246" x2="538.773" y2="312.916" gradientUnits="userSpaceOnUse"><stop stop-color="#1BC082"/><stop offset="1" stop-color="#23C89A"/></linearGradient><linearGradient id="paint16_linear_232_654" x1="369.261" y1="262.939" x2="377.755" y2="294.64" gradientUnits="userSpaceOnUse"><stop stop-color="#1BC082"/><stop offset="1" stop-color="#23C89A"/></linearGradient><linearGradient id="paint17_linear_232_654" x1="397.55" y1="240.538" x2="410.34" y2="288.27" gradientUnits="userSpaceOnUse"><stop stop-color="#1BC082"/><stop offset="1" stop-color="#23C89A"/></linearGradient><linearGradient id="paint18_linear_232_654" x1="194.376" y1="234.889" x2="200.443" y2="257.533" gradientUnits="userSpaceOnUse"><stop stop-color="#F6F4FF"/><stop offset="1" stop-color="#ECE7FB"/></linearGradient><linearGradient id="paint19_linear_232_654" x1="254.609" y1="248.439" x2="263.415" y2="281.302" gradientUnits="userSpaceOnUse"><stop stop-color="#F6F4FF"/><stop offset="1" stop-color="#ECE7FB"/></linearGradient><linearGradient id="paint20_linear_232_654" x1="317.967" y1="249.288" x2="326.773" y2="282.152" gradientUnits="userSpaceOnUse"><stop stop-color="#F6F4FF"/><stop offset="1" stop-color="#ECE7FB"/></linearGradient><linearGradient id="paint21_linear_232_654" x1="337.868" y1="267.702" x2="344.051" y2="290.774" gradientUnits="userSpaceOnUse"><stop stop-color="#F6F4FF"/><stop offset="1" stop-color="#ECE7FB"/></linearGradient><linearGradient id="paint22_linear_232_654" x1="252.286" y1="238.91" x2="259.317" y2="265.151" gradientUnits="userSpaceOnUse"><stop stop-color="#F6F4FF"/><stop offset="1" stop-color="#ECE7FB"/></linearGradient><linearGradient id="paint23_linear_232_654" x1="218.923" y1="249.96" x2="221.815" y2="260.757" gradientUnits="userSpaceOnUse"><stop stop-color="#F6F4FF"/><stop offset="1" stop-color="#ECE7FB"/></linearGradient><linearGradient id="paint24_linear_232_654" x1="344.418" y1="279.76" x2="349.521" y2="298.804" gradientUnits="userSpaceOnUse"><stop stop-color="#F6F4FF"/><stop offset="1" stop-color="#ECE7FB"/></linearGradient><linearGradient id="paint25_linear_232_654" x1="414.053" y1="322.486" x2="419.156" y2="341.53" gradientUnits="userSpaceOnUse"><stop stop-color="#F6F4FF"/><stop offset="1" stop-color="#ECE7FB"/></linearGradient><linearGradient id="paint26_linear_232_654" x1="484.245" y1="296.379" x2="491.069" y2="321.847" gradientUnits="userSpaceOnUse"><stop stop-color="#F6F4FF"/><stop offset="1" stop-color="#ECE7FB"/></linearGradient><linearGradient id="paint27_linear_232_654" x1="595.384" y1="279.583" x2="603.041" y2="308.159" gradientUnits="userSpaceOnUse"><stop stop-color="#F6F4FF"/><stop offset="1" stop-color="#ECE7FB"/></linearGradient><linearGradient id="paint28_linear_232_654" x1="432.103" y1="241.243" x2="443.562" y2="284.007" gradientUnits="userSpaceOnUse"><stop stop-color="#F6F4FF"/><stop offset="1" stop-color="#ECE7FB"/></linearGradient><linearGradient id="paint29_linear_232_654" x1="427.535" y1="266.217" x2="437.154" y2="302.113" gradientUnits="userSpaceOnUse"><stop stop-color="#F6F4FF"/><stop offset="1" stop-color="#ECE7FB"/></linearGradient><linearGradient id="paint30_linear_232_654" x1="415.686" y1="298.921" x2="423.274" y2="327.242" gradientUnits="userSpaceOnUse"><stop stop-color="#F6F4FF"/><stop offset="1" stop-color="#ECE7FB"/></linearGradient><linearGradient id="paint31_linear_232_654" x1="417.475" y1="231.299" x2="432.535" y2="287.506" gradientUnits="userSpaceOnUse"><stop stop-color="#1BC082"/><stop offset="1" stop-color="#23C89A"/></linearGradient><linearGradient id="paint32_linear_232_654" x1="115.129" y1="248.214" x2="121.921" y2="273.565" gradientUnits="userSpaceOnUse"><stop stop-color="#1BC082"/><stop offset="1" stop-color="#23C89A"/></linearGradient><filter id="filter0_d_232_654" x="31.34" y="107.621" width="657.725" height="320.822" filterUnits="userSpaceOnUse" color-interpolation-filters="sRGB"><feFlood flood-opacity="0" result="BackgroundImageFix"/><feColorMatrix in="SourceAlpha" values="0 0 0 0 0 0 0 0 0 0 0 0 0 0 0 0 0 0 127 0" result="hardAlpha"/><feOffset dy="4"/><feGaussianBlur stdDeviation="2"/><feComposite in2="hardAlpha" operator="out"/><feColorMatrix values="0 0 0 0 0 0 0 0 0 0 0 0 0 0 0 0 0 0 0.2 0"/><feBlend in2="BackgroundImageFix" result="effect1_dropShadow_232_654"/><feBlend in="SourceGraphic" in2="effect1_dropShadow_232_654" result="shape"/></filter><filter id="filter1_d_232_654" x="94.797" y="131" width="539.033" height="287.672" filterUnits="userSpaceOnUse" color-interpolation-filters="sRGB"><feFlood flood-opacity="0" result="BackgroundImageFix"/><feColorMatrix in="SourceAlpha" values="0 0 0 0 0 0 0 0 0 0 0 0 0 0 0 0 0 0 127 0" result="hardAlpha"/><feOffset dy="4"/><feGaussianBlur stdDeviation="2"/><feComposite in2="hardAlpha" operator="out"/><feColorMatrix values="0 0 0 0 0 0 0 0 0 0 0 0 0 0 0 0 0 0 0.15 0"/><feBlend in2="BackgroundImageFix" result="effect1_dropShadow_232_654"/><feBlend in="SourceGraphic" in2="effect1_dropShadow_232_654" result="shape"/></filter></defs></svg>