<svg width="18" height="19" fill="none" xmlns="http://www.w3.org/2000/svg"><path d="M16.346 17.908c.243.43.73.615 1.155.43.426-.246.608-.738.426-1.169-1.642-3.446-5.108-5.723-8.94-5.723-3.77 0-7.236 2.277-8.878 5.723-.243.431-.06.923.365 1.17.426.184.973 0 1.155-.431 1.338-2.893 4.196-4.739 7.358-4.739 3.163 0 6.02 1.846 7.359 4.739zM8.986 0c-2.858 0-5.23 2.4-5.23 5.292 0 2.893 2.372 5.293 5.23 5.293 2.919 0 5.23-2.4 5.23-5.293C14.216 2.4 11.905 0 8.986 0zm0 1.723c1.946 0 3.527 1.6 3.527 3.57 0 1.969-1.581 3.569-3.527 3.569-1.946 0-3.527-1.6-3.527-3.57 0-1.969 1.581-3.569 3.527-3.569z" fill="#573CDA"/></svg>